M48
;Layer_Color=9474304
;FILE_FORMAT=4:4
METRIC,LZ
;TYPE=PLATED
T01F00S00C0.4750
T02F00S00C0.7000
T03F00S00C0.7112
T04F00S00C1.0200
T05F00S00C1.0700
T06F00S00C1.1000
T07F00S00C1.3970
%
T01
X001356Y00432
X001864
T02
X004775Y0025415
Y0027955
Y0030495
Y0033035
Y0035575
Y0038115
Y0040655
Y0043195
Y0045735
X005625
Y0043195
Y0040655
Y0038115
Y0035575
Y0033035
Y0030495
Y0027955
Y0025415
T03
X01082Y00194
X01078Y0025
X01119Y00236
X0116Y00262
X01192Y00223
X01206634Y00194
X01223Y0021
X01144Y00181
X01124Y00327
X01131073Y00365427
X0113075Y0040525
X01176Y00429
X01222665Y0044327
X01066Y00397
Y00375
X010606Y003494
Y00324
X01046Y00337
Y003621
X01005431Y00418012
X01003Y00444
X01028996Y00443068
X00976Y00459
X0096414Y0040014
X00906Y00383
X0090691Y00362234
X00893951Y00349013
X00894213Y00323749
X00908089Y00336708
X00872Y00292
X0085Y00274
X00891Y0022215
X0091Y00208
X00954Y00194
X00987Y00222
X01048Y002225
X01036Y00262
X01012
X01023Y00283
X00836Y0037565
X00849Y00419
X00811Y00411
X00800257Y00432611
X0074762Y0045262
X00753Y0038
X007474Y003494
X00741Y00324
X00696Y00337
Y00362
Y00292
X00669Y0027
X00712Y00225
X00692Y00194
X00764Y0022215
X00791Y00209
X00832Y00194
X00562Y00125
X0037Y00457
X00179Y0019
X00147Y0016
X00097Y00118
X00049Y00141
X00161Y00488
X00129Y006055
X00391Y0056
X00655Y00505
X00641Y00484
X00739
X00765Y0049
X00844Y00521
X009Y00467
X01051Y00475
X01055Y00505
X01082
X01069Y0049
X01131Y00522
X01206535Y00460511
T04
X001216Y000503
X00147
X001724
Y000757
X00147
X001216
T05
X010816Y00123
X01108
X010552
X010288
X010024
X00976
X009496
X009232
X008968
X008704
X00844
X008176
X007912
X007648
X007384
X00712
X00056Y005026
Y00528
Y005726
Y00598
X00056Y006426
Y00668
X00712227Y0058897
X00738627
X00765027
X00791427
X00817827
X00844227
X00870627
X00897027
X00923427
X00949827
X00976227
X01002627
X01029027
X01055427
X01081827
X01108227
T06
X00317Y00031
X00363
X00451
X00497
Y00097
X00451
X00363
X00317
T07
X002781Y002792
X003035
X003289
X003543
X003797
X004051
Y003808
X003797
X003543
X003289
X003035
X002781
X002527
X002273
X002019
X001765
X001511
X001257
X001003
X000749
Y002792
X001003
X001257
X001511
X001765
X002019
X002273
X002527
M30
