G04*
G04 #@! TF.GenerationSoftware,Altium Limited,Altium Designer,24.5.2 (23)*
G04*
G04 Layer_Physical_Order=1*
G04 Layer_Color=255*
%FSLAX44Y44*%
%MOMM*%
G71*
G04*
G04 #@! TF.SameCoordinates,5CBC3D74-EA73-4CBB-BCEB-C53DBBCF94AE*
G04*
G04*
G04 #@! TF.FilePolarity,Positive*
G04*
G01*
G75*
%ADD14R,2.5000X1.0000*%
%ADD15R,1.1500X0.5500*%
%ADD16R,0.5500X1.1500*%
%ADD17R,0.7500X1.4500*%
%ADD18R,1.3500X0.8000*%
%ADD19R,1.3500X0.7500*%
%ADD20R,1.4500X0.7500*%
%ADD21R,0.8000X1.3500*%
%ADD22R,3.5000X1.6000*%
%ADD23R,9.7500X12.2000*%
%ADD47C,0.6000*%
%ADD48C,0.5000*%
%ADD49R,2.0000X2.0000*%
%ADD50C,2.0000*%
%ADD51C,1.6700*%
%ADD52R,1.6700X1.6700*%
%ADD53C,1.7000*%
%ADD54C,1.6200*%
%ADD55R,1.6200X1.6200*%
%ADD56C,1.0750*%
%ADD57C,1.6000*%
%ADD58R,1.6000X1.6000*%
%ADD59O,2.0000X1.6000*%
%ADD60R,2.0000X1.6000*%
%ADD61C,1.2700*%
D14*
X209000Y190000D02*
D03*
X249000D02*
D03*
D15*
X391000Y592750D02*
D03*
Y577250D02*
D03*
D16*
X418750Y244000D02*
D03*
X403250D02*
D03*
D17*
X240750Y243000D02*
D03*
X255250D02*
D03*
X247250Y417000D02*
D03*
X232750D02*
D03*
X218250Y243000D02*
D03*
X203750D02*
D03*
D18*
X446000Y244000D02*
D03*
Y230000D02*
D03*
X391000Y625000D02*
D03*
Y639000D02*
D03*
X405000Y434000D02*
D03*
Y420000D02*
D03*
D19*
X186400Y488000D02*
D03*
Y474000D02*
D03*
X135600Y488000D02*
D03*
Y474000D02*
D03*
D20*
X154000Y563750D02*
D03*
Y578250D02*
D03*
X154000Y646250D02*
D03*
Y631750D02*
D03*
D21*
X267000Y97000D02*
D03*
X281000D02*
D03*
X400000Y98000D02*
D03*
X414000D02*
D03*
D22*
X206625Y582600D02*
D03*
Y633400D02*
D03*
D23*
X309375Y608000D02*
D03*
D47*
X378000Y528000D02*
X391000Y541000D01*
X247250Y507250D02*
X268000Y528000D01*
X378000D01*
X624380Y452620D02*
X747620D01*
X281000Y97000D02*
Y117000D01*
X240000Y158000D02*
X281000Y117000D01*
X240000Y158000D02*
Y160000D01*
X400000Y116000D02*
X409000Y125000D01*
X562000D01*
X370000Y428000D02*
X378000Y420000D01*
X370000Y428000D02*
Y457000D01*
X378000Y420000D02*
X405000D01*
X97000Y118000D02*
X164000D01*
X172400Y109600D01*
X50000Y140000D02*
X229000D01*
X49000Y141000D02*
X50000Y140000D01*
X229000D02*
X245000Y124000D01*
X172400Y75700D02*
Y109600D01*
X414500Y97500D02*
X450500D01*
X414000Y98000D02*
X414500Y97500D01*
X450500D02*
X451000Y97000D01*
X483000Y52000D02*
X497000Y66000D01*
Y97000D01*
X254000Y52000D02*
X483000D01*
X245000Y61000D02*
X254000Y52000D01*
X245000Y61000D02*
Y124000D01*
X147000Y160000D02*
X240000D01*
X249000Y169000D01*
X44000Y160000D02*
X147000D01*
X28000Y176000D02*
X44000Y160000D01*
X309000Y68000D02*
X317000Y76000D01*
Y97000D01*
X271000Y68000D02*
X309000D01*
X267000Y72000D02*
X271000Y68000D01*
X267000Y72000D02*
Y97000D01*
X427000Y354000D02*
Y446000D01*
X438350Y457350D01*
X417000Y344000D02*
X427000Y354000D01*
X424000Y320000D02*
X442000Y338000D01*
Y394000D01*
X454550Y406550D01*
X444000Y302000D02*
X456000Y314000D01*
Y370000D01*
X465237Y379237D01*
X475587D01*
X454550Y406550D02*
X477500D01*
X387000Y344000D02*
X417000D01*
X379700Y351300D02*
Y380800D01*
Y351300D02*
X387000Y344000D01*
X340000Y320000D02*
X424000D01*
X328900Y331100D02*
X340000Y320000D01*
X328900Y331100D02*
Y380800D01*
X316000Y302000D02*
X444000D01*
X303500Y314500D02*
Y380800D01*
Y314500D02*
X316000Y302000D01*
X438350Y457350D02*
X477500D01*
X475587Y379237D02*
X477500Y381150D01*
X186400Y432000D02*
Y474000D01*
X135600Y432000D02*
Y474000D01*
X201900Y380800D02*
Y416500D01*
X186400Y432000D02*
X201900Y416500D01*
X135600Y417400D02*
Y432000D01*
Y417400D02*
X141000Y412000D01*
X169000D01*
X176500Y404500D01*
Y380800D02*
Y404500D01*
X218250Y243000D02*
X240750D01*
X240750Y243000D01*
X218250Y243000D02*
X218250Y243000D01*
X405000Y380900D02*
X405100Y380800D01*
X405000Y380900D02*
Y420000D01*
Y434000D02*
Y527000D01*
X391000Y541000D02*
X405000Y527000D01*
X614000Y463000D02*
X624380Y452620D01*
X614000Y463000D02*
Y548000D01*
X602000Y560000D02*
X614000Y548000D01*
X391000Y560000D02*
X602000D01*
X249000Y169000D02*
Y190000D01*
X400000Y98000D02*
Y116000D01*
X392000Y124000D02*
X400000Y116000D01*
X288000Y124000D02*
X392000D01*
X281000Y117000D02*
X288000Y124000D01*
X240750Y219250D02*
X249000Y211000D01*
Y190000D02*
Y211000D01*
X240750Y219250D02*
Y243000D01*
X201900Y279200D02*
X227300D01*
X201900D02*
X218250Y262850D01*
Y243000D02*
Y262850D01*
X247250Y401750D02*
X252700Y396300D01*
X247250Y401750D02*
Y417000D01*
X252700Y380800D02*
Y396300D01*
X391000Y541000D02*
Y560000D01*
X247250Y417000D02*
Y507250D01*
X477450Y432000D02*
X477500Y431950D01*
X28000Y176000D02*
Y522000D01*
X34000Y528000D01*
X56000D01*
X391000Y577250D02*
X391000Y577250D01*
Y560000D02*
Y577250D01*
X206625Y550625D02*
Y582600D01*
X192000Y536000D02*
X206625Y550625D01*
X121000Y536000D02*
X192000D01*
X87600Y502600D02*
X121000Y536000D01*
X56000Y502600D02*
X87600D01*
X96000Y563000D02*
X96750Y563750D01*
X154000D01*
X96000Y563000D02*
Y589000D01*
Y537000D02*
Y563000D01*
X87000Y528000D02*
X96000Y537000D01*
X56000Y528000D02*
X87000D01*
X87000Y598000D02*
X96000Y589000D01*
X56000Y598000D02*
X87000D01*
X181600Y633400D02*
X206625D01*
X168750Y646250D02*
X181600Y633400D01*
X154000Y646250D02*
X168750D01*
X105000Y668000D02*
X126750Y646250D01*
X56000Y668000D02*
X105000D01*
X126750Y646250D02*
X154000D01*
D48*
X655000Y505000D02*
X1055000D01*
X641000Y484000D02*
X739000D01*
X800646Y433000D02*
X971000D01*
X998000Y460000D02*
X1206023D01*
X971000Y433000D02*
X998000Y460000D01*
X474000Y230000D02*
X477500Y233500D01*
Y254150D01*
X446000Y230000D02*
X474000D01*
X418750Y244000D02*
X446000D01*
X179000Y190000D02*
X209000D01*
X203750Y215250D02*
X209000Y210000D01*
Y190000D02*
Y210000D01*
X203750Y215250D02*
Y243000D01*
X255250Y243000D02*
Y260750D01*
X252700Y263300D02*
X255250Y260750D01*
X252700Y263300D02*
Y279200D01*
X227300Y380800D02*
X228300Y381800D01*
Y398300D01*
X232750Y402750D01*
Y417000D01*
X369071Y608000D02*
X372000Y610929D01*
Y635000D01*
X309375Y608000D02*
X369071D01*
X372000Y635000D02*
X376000Y639000D01*
X391000D01*
X161000Y488000D02*
X186400D01*
X186400Y488000D01*
X135600Y488000D02*
X161000D01*
X135600Y488000D02*
X135600Y488000D01*
X129000Y605500D02*
Y627000D01*
Y584000D02*
Y605500D01*
X306875D02*
X309375Y608000D01*
X129000Y605500D02*
X306875D01*
X134750Y578250D02*
X154000D01*
X129000Y584000D02*
X134750Y578250D01*
X129000Y627000D02*
X133750Y631750D01*
X154000D01*
X906977Y362167D02*
X1048033D01*
X695930Y361936D02*
X695997Y362003D01*
X677000Y210000D02*
X717000Y250000D01*
X1078000D01*
X1036000Y262000D02*
X1160000D01*
X1001000Y274000D02*
X1010000Y283000D01*
X1023000D01*
X850000Y274000D02*
X1001000D01*
X696234Y362234D02*
X906910D01*
X836000Y375650D02*
X843350Y383000D01*
X906000D01*
X1003000Y444000D02*
X1026000Y421000D01*
Y383000D02*
Y421000D01*
X961000Y467000D02*
X968727Y474727D01*
X900000Y467000D02*
X961000D01*
X968727Y474727D02*
X1050727D01*
X1098000Y429000D02*
X1176000D01*
X1066000Y397000D02*
X1098000Y429000D01*
X1222313Y443169D02*
X1222482Y443000D01*
X1222000Y210000D02*
X1223000Y211000D01*
X908093Y336704D02*
X908243Y336854D01*
X1045854D01*
X1046000Y337000D01*
X633936Y361936D02*
X695930D01*
X626000Y354000D02*
X633936Y361936D01*
X695146Y336854D02*
X907943D01*
X695000Y337000D02*
X695146Y336854D01*
X671000Y342000D02*
X678400Y349400D01*
X747400D01*
X641000Y194000D02*
Y230000D01*
X365000Y183000D02*
X630000D01*
X641000Y194000D01*
X389000Y198000D02*
X618000D01*
X626000Y206000D02*
Y354000D01*
X618000Y198000D02*
X626000Y206000D01*
X882000Y209000D02*
X910000Y181000D01*
X791000Y209000D02*
X882000D01*
X653000Y224000D02*
X683000Y254000D01*
Y287000D01*
X671000Y299000D02*
X683000Y287000D01*
X671000Y299000D02*
Y342000D01*
X677000Y156000D02*
Y210000D01*
X910000Y181000D02*
X1144000D01*
X710000Y262000D02*
X1012000D01*
X665000Y217000D02*
X710000Y262000D01*
X1118000Y236000D02*
X1119000Y237000D01*
X723000Y236000D02*
X1118000D01*
X712000Y225000D02*
X723000Y236000D01*
X987000Y222000D02*
X987500Y222500D01*
X1047500D02*
X1048000Y223000D01*
X987500Y222500D02*
X1047500D01*
X910000Y208000D02*
X1054000D01*
X1069000Y223000D01*
X954000Y194000D02*
X1063000D01*
X1079000Y210000D01*
X1069000Y223000D02*
X1192000D01*
X1079000Y210000D02*
X1222000D01*
X1082000Y194000D02*
X1206634D01*
X1206634Y194000D01*
X907943Y336854D02*
X908093Y336704D01*
X445875Y243875D02*
X446000Y244000D01*
X418750D02*
X418875Y243875D01*
X403250Y257250D02*
X405100Y259100D01*
X403250Y244000D02*
Y257250D01*
X405100Y259100D02*
Y279200D01*
X641000Y230000D02*
X669000Y258000D01*
Y270000D01*
X653000Y178000D02*
Y224000D01*
X696000Y292000D02*
X872000D01*
X665000Y166000D02*
Y217000D01*
X644000Y169000D02*
X653000Y178000D01*
X347000Y169000D02*
X644000D01*
X653000Y154000D02*
X665000Y166000D01*
X332000Y154000D02*
X653000D01*
X661000Y140000D02*
X677000Y156000D01*
X314000Y140000D02*
X661000D01*
X894088Y323875D02*
X894213Y323749D01*
X741125Y323875D02*
X894088D01*
X741000Y324000D02*
X741125Y323875D01*
X692000Y194000D02*
X832000D01*
X764000Y222150D02*
X891000D01*
X894338Y323875D02*
X1059875D01*
X894213Y323749D02*
X894338Y323875D01*
X1059875D02*
X1060000Y324000D01*
X278100Y175900D02*
X314000Y140000D01*
X278100Y175900D02*
Y279200D01*
X354300Y193700D02*
Y279200D01*
Y193700D02*
X365000Y183000D01*
X379700Y207300D02*
Y279200D01*
Y207300D02*
X389000Y198000D01*
X328900Y187100D02*
X347000Y169000D01*
X303500Y182500D02*
X332000Y154000D01*
X328900Y187100D02*
Y279200D01*
X303500Y182500D02*
Y279200D01*
X391000Y592750D02*
X391000Y592750D01*
Y625000D01*
X1215000Y505000D02*
X1235500Y484500D01*
X1082000Y505000D02*
X1215000D01*
X1235500Y342500D02*
Y484500D01*
X964000Y400000D02*
X964140Y400140D01*
X822000Y400000D02*
X964000D01*
X811000Y411000D02*
X822000Y400000D01*
X765000Y490000D02*
X1069000D01*
X844500Y521500D02*
X1130500D01*
X844000Y521000D02*
X844500Y521500D01*
X1130500D02*
X1131000Y522000D01*
X1050727Y474727D02*
X1051000Y475000D01*
X782000Y449000D02*
X966000D01*
X976000Y459000D01*
X777000Y467000D02*
X900000D01*
X762620Y452620D02*
X777000Y467000D01*
X753000Y420000D02*
X782000Y449000D01*
X800257Y432611D02*
X800646Y433000D01*
X849494Y418506D02*
X1004936D01*
X1005431Y418012D01*
X849000Y419000D02*
X849494Y418506D01*
X747620Y452620D02*
X762620D01*
X753000Y380000D02*
Y420000D01*
X870400Y123000D02*
X870630Y122770D01*
X1206023Y460000D02*
X1206535Y460511D01*
X1028996Y443068D02*
X1029098Y443169D01*
X1222313D01*
X1130750Y365750D02*
X1131073Y365427D01*
X1130750Y365750D02*
Y405250D01*
X1124000Y327000D02*
X1220000D01*
X1235500Y342500D01*
X1048033Y362167D02*
X1048100Y362100D01*
X906910Y362234D02*
X906977Y362167D01*
X894145Y349207D02*
X1060407D01*
X747594D02*
X893758D01*
X893951Y349013D01*
X894145Y349207D01*
X1060407D02*
X1060600Y349400D01*
X747400D02*
X747594Y349207D01*
X1034000Y375000D02*
X1066000D01*
X1026000Y383000D02*
X1034000Y375000D01*
D49*
X405100Y380800D02*
D03*
D50*
X379700D02*
D03*
X354300D02*
D03*
X328900D02*
D03*
X303500D02*
D03*
X278100D02*
D03*
X252700D02*
D03*
X227300D02*
D03*
X201900D02*
D03*
X176500D02*
D03*
X151100D02*
D03*
X125700D02*
D03*
X100300D02*
D03*
X74900D02*
D03*
X405100Y279200D02*
D03*
X379700D02*
D03*
X354300D02*
D03*
X328900D02*
D03*
X303500D02*
D03*
X278100D02*
D03*
X252700D02*
D03*
X227300D02*
D03*
X201900D02*
D03*
X176500D02*
D03*
X151100D02*
D03*
X125700D02*
D03*
X100300D02*
D03*
X74900D02*
D03*
D51*
X1108227Y588970D02*
D03*
X1081827D02*
D03*
X1055427D02*
D03*
X1029027D02*
D03*
X1002627D02*
D03*
X976227D02*
D03*
X949827D02*
D03*
X923427D02*
D03*
X897027D02*
D03*
X870627D02*
D03*
X844227D02*
D03*
X817827D02*
D03*
X791427D02*
D03*
X765027D02*
D03*
X738627D02*
D03*
X1108000Y123000D02*
D03*
X1081600D02*
D03*
X1055200D02*
D03*
X1028800D02*
D03*
X1002400D02*
D03*
X976000D02*
D03*
X949600D02*
D03*
X923200D02*
D03*
X896800D02*
D03*
X870400D02*
D03*
X844000D02*
D03*
X817600D02*
D03*
X791200D02*
D03*
X764800D02*
D03*
X738400D02*
D03*
D52*
X712227Y588970D02*
D03*
X712000Y123000D02*
D03*
D53*
X317000Y31000D02*
D03*
X363000D02*
D03*
X317000Y97000D02*
D03*
X363000D02*
D03*
X451000Y31000D02*
D03*
X497000D02*
D03*
X451000Y97000D02*
D03*
X497000D02*
D03*
D54*
X121600Y75700D02*
D03*
X172400Y50300D02*
D03*
X147000D02*
D03*
X121600D02*
D03*
X147000Y75700D02*
D03*
D55*
X172400D02*
D03*
D56*
X135600Y432000D02*
D03*
X186400D02*
D03*
D57*
X562500Y254150D02*
D03*
Y279550D02*
D03*
Y304950D02*
D03*
Y330350D02*
D03*
Y355750D02*
D03*
Y381150D02*
D03*
Y406550D02*
D03*
Y431950D02*
D03*
Y457350D02*
D03*
X477500Y254150D02*
D03*
Y279550D02*
D03*
Y304950D02*
D03*
Y330350D02*
D03*
Y355750D02*
D03*
Y381150D02*
D03*
Y406550D02*
D03*
Y431950D02*
D03*
D58*
Y457350D02*
D03*
D59*
X56000Y642600D02*
D03*
X56000Y572600D02*
D03*
Y502600D02*
D03*
D60*
X56000Y668000D02*
D03*
X56000Y598000D02*
D03*
Y528000D02*
D03*
D61*
X655000Y505000D02*
D03*
X641000Y484000D02*
D03*
X747620Y452620D02*
D03*
X739000Y484000D02*
D03*
X179000Y190000D02*
D03*
X161000Y488000D02*
D03*
X129000Y605500D02*
D03*
X844000Y521000D02*
D03*
X1012000Y262000D02*
D03*
X1036000D02*
D03*
X836000Y375650D02*
D03*
X1003000Y444000D02*
D03*
X1176000Y429000D02*
D03*
X1023000Y283000D02*
D03*
X1046000Y337000D02*
D03*
X696000D02*
D03*
Y362000D02*
D03*
X850000Y274000D02*
D03*
X1160000Y262000D02*
D03*
X1119000Y236000D02*
D03*
X1078000Y250000D02*
D03*
X1048000Y222500D02*
D03*
X987000Y222000D02*
D03*
X910000Y208000D02*
D03*
X954000Y194000D02*
D03*
X1192000Y223000D02*
D03*
X1144000Y181000D02*
D03*
X1082000Y194000D02*
D03*
X562000Y125000D02*
D03*
X669000Y270000D02*
D03*
X696000Y292000D02*
D03*
X741000Y324000D02*
D03*
X894213Y323749D02*
D03*
X872000Y292000D02*
D03*
X692000Y194000D02*
D03*
X712000Y225000D02*
D03*
X764000Y222150D02*
D03*
X891000D02*
D03*
X791000Y209000D02*
D03*
X832000Y194000D02*
D03*
X370000Y457000D02*
D03*
X97000Y118000D02*
D03*
X49000Y141000D02*
D03*
X147000Y160000D02*
D03*
X391000Y560000D02*
D03*
X964140Y400140D02*
D03*
X1069000Y490000D02*
D03*
X1082000Y505000D02*
D03*
X1131000Y522000D02*
D03*
X765000Y490000D02*
D03*
X1055000Y505000D02*
D03*
X1051000Y475000D02*
D03*
X976000Y459000D02*
D03*
X900000Y467000D02*
D03*
X800257Y432611D02*
D03*
X849000Y419000D02*
D03*
X1005431Y418012D02*
D03*
X811000Y411000D02*
D03*
X1206535Y460511D02*
D03*
X1028996Y443068D02*
D03*
X1222665Y443270D02*
D03*
X1206634Y194000D02*
D03*
X1131073Y365427D02*
D03*
X1130750Y405250D02*
D03*
X1124000Y327000D02*
D03*
X1066000Y397000D02*
D03*
X753000Y380000D02*
D03*
X906000Y383000D02*
D03*
X908089Y336708D02*
D03*
X906910Y362234D02*
D03*
X893951Y349013D02*
D03*
X1223000Y210000D02*
D03*
X1066000Y375000D02*
D03*
X1060600Y324000D02*
D03*
Y349400D02*
D03*
X1046000Y362100D02*
D03*
X747400Y349400D02*
D03*
M02*
