G04*
G04 #@! TF.GenerationSoftware,Altium Limited,Altium Designer,24.5.2 (23)*
G04*
G04 Layer_Color=128*
%FSLAX44Y44*%
%MOMM*%
G71*
G04*
G04 #@! TF.SameCoordinates,1EBED2E9-880A-465B-A16B-BDCA1ABA21D8*
G04*
G04*
G04 #@! TF.FilePolarity,Positive*
G04*
G01*
G75*
%ADD15R,1.3500X0.8000*%
%ADD19R,0.7500X1.4500*%
%ADD68R,1.8500X0.6000*%
%ADD69O,1.8500X0.6000*%
D15*
X765030Y538000D02*
D03*
Y552000D02*
D03*
X1055430Y174000D02*
D03*
Y160000D02*
D03*
X1081830Y174000D02*
D03*
Y160000D02*
D03*
X1029030Y174000D02*
D03*
Y160000D02*
D03*
X1108230Y160000D02*
D03*
Y174000D02*
D03*
X817830Y538000D02*
D03*
Y552000D02*
D03*
X738630Y552000D02*
D03*
Y538000D02*
D03*
X791430Y538000D02*
D03*
Y552000D02*
D03*
X712230Y552000D02*
D03*
Y538000D02*
D03*
X844230Y538000D02*
D03*
Y552000D02*
D03*
X976230Y174000D02*
D03*
Y160000D02*
D03*
X1002630Y174000D02*
D03*
Y160000D02*
D03*
Y538000D02*
D03*
Y552000D02*
D03*
X844230Y174000D02*
D03*
Y160000D02*
D03*
X976230Y538000D02*
D03*
Y552000D02*
D03*
X791430Y174000D02*
D03*
Y160000D02*
D03*
X1029030Y538000D02*
D03*
Y552000D02*
D03*
X817830Y174000D02*
D03*
Y160000D02*
D03*
X1081830Y538000D02*
D03*
Y552000D02*
D03*
X765030Y174000D02*
D03*
Y160000D02*
D03*
X1055430Y538000D02*
D03*
Y552000D02*
D03*
X712000Y174000D02*
D03*
Y160000D02*
D03*
X1108230Y538000D02*
D03*
Y552000D02*
D03*
X738630Y174000D02*
D03*
Y160000D02*
D03*
D19*
X1051380Y429000D02*
D03*
X1065880D02*
D03*
X899500D02*
D03*
X914000D02*
D03*
X747620D02*
D03*
X762120D02*
D03*
D68*
X1093630Y400200D02*
D03*
X941750D02*
D03*
X789870D02*
D03*
D69*
X1093630Y387500D02*
D03*
Y374800D02*
D03*
Y362100D02*
D03*
Y349400D02*
D03*
Y336700D02*
D03*
Y324000D02*
D03*
Y311300D02*
D03*
X1023630Y400200D02*
D03*
Y387500D02*
D03*
Y374800D02*
D03*
Y362100D02*
D03*
Y349400D02*
D03*
Y336700D02*
D03*
Y324000D02*
D03*
Y311300D02*
D03*
X941750Y387500D02*
D03*
Y374800D02*
D03*
Y362100D02*
D03*
Y349400D02*
D03*
Y336700D02*
D03*
Y324000D02*
D03*
Y311300D02*
D03*
X871750Y400200D02*
D03*
Y387500D02*
D03*
Y374800D02*
D03*
Y362100D02*
D03*
Y349400D02*
D03*
Y336700D02*
D03*
Y324000D02*
D03*
Y311300D02*
D03*
X789870Y387500D02*
D03*
Y374800D02*
D03*
Y362100D02*
D03*
Y349400D02*
D03*
Y336700D02*
D03*
Y324000D02*
D03*
Y311300D02*
D03*
X719870Y400200D02*
D03*
Y387500D02*
D03*
Y374800D02*
D03*
Y362100D02*
D03*
Y349400D02*
D03*
Y336700D02*
D03*
Y324000D02*
D03*
Y311300D02*
D03*
M02*
