G04*
G04 #@! TF.GenerationSoftware,Altium Limited,Altium Designer,24.5.2 (23)*
G04*
G04 Layer_Color=8388736*
%FSLAX44Y44*%
%MOMM*%
G71*
G04*
G04 #@! TF.SameCoordinates,5CBC3D74-EA73-4CBB-BCEB-C53DBBCF94AE*
G04*
G04*
G04 #@! TF.FilePolarity,Negative*
G04*
G01*
G75*
%ADD24R,2.7032X1.2032*%
%ADD25R,1.3532X0.7532*%
%ADD26R,0.7532X1.3532*%
%ADD27R,0.9532X1.6532*%
%ADD28R,1.5532X1.0032*%
%ADD29R,1.5532X0.9532*%
%ADD30R,1.6532X0.9532*%
%ADD31R,1.0032X1.5532*%
%ADD32R,3.7032X1.8032*%
%ADD33R,9.9532X12.4032*%
%ADD34R,2.2032X2.2032*%
%ADD35C,2.2032*%
%ADD36C,1.8732*%
%ADD37R,1.8732X1.8732*%
%ADD38C,1.9032*%
%ADD39C,1.8232*%
%ADD40R,1.8232X1.8232*%
%ADD41C,1.2782*%
%ADD42C,1.8032*%
%ADD43R,1.8032X1.8032*%
%ADD44O,2.2032X1.8032*%
%ADD45R,2.2032X1.8032*%
%ADD46C,1.4732*%
D24*
X209000Y190000D02*
D03*
X249000D02*
D03*
D25*
X391000Y592750D02*
D03*
Y577250D02*
D03*
D26*
X418750Y244000D02*
D03*
X403250D02*
D03*
D27*
X240750Y243000D02*
D03*
X255250D02*
D03*
X247250Y417000D02*
D03*
X232750D02*
D03*
X218250Y243000D02*
D03*
X203750D02*
D03*
D28*
X446000Y244000D02*
D03*
Y230000D02*
D03*
X391000Y625000D02*
D03*
Y639000D02*
D03*
X405000Y434000D02*
D03*
Y420000D02*
D03*
D29*
X186400Y488000D02*
D03*
Y474000D02*
D03*
X135600Y488000D02*
D03*
Y474000D02*
D03*
D30*
X154000Y563750D02*
D03*
Y578250D02*
D03*
X154000Y646250D02*
D03*
Y631750D02*
D03*
D31*
X267000Y97000D02*
D03*
X281000D02*
D03*
X400000Y98000D02*
D03*
X414000D02*
D03*
D32*
X206625Y582600D02*
D03*
Y633400D02*
D03*
D33*
X309375Y608000D02*
D03*
D34*
X405100Y380800D02*
D03*
D35*
X379700D02*
D03*
X354300D02*
D03*
X328900D02*
D03*
X303500D02*
D03*
X278100D02*
D03*
X252700D02*
D03*
X227300D02*
D03*
X201900D02*
D03*
X176500D02*
D03*
X151100D02*
D03*
X125700D02*
D03*
X100300D02*
D03*
X74900D02*
D03*
X405100Y279200D02*
D03*
X379700D02*
D03*
X354300D02*
D03*
X328900D02*
D03*
X303500D02*
D03*
X278100D02*
D03*
X252700D02*
D03*
X227300D02*
D03*
X201900D02*
D03*
X176500D02*
D03*
X151100D02*
D03*
X125700D02*
D03*
X100300D02*
D03*
X74900D02*
D03*
D36*
X1108227Y588970D02*
D03*
X1081827D02*
D03*
X1055427D02*
D03*
X1029027D02*
D03*
X1002627D02*
D03*
X976227D02*
D03*
X949827D02*
D03*
X923427D02*
D03*
X897027D02*
D03*
X870627D02*
D03*
X844227D02*
D03*
X817827D02*
D03*
X791427D02*
D03*
X765027D02*
D03*
X738627D02*
D03*
X1108000Y123000D02*
D03*
X1081600D02*
D03*
X1055200D02*
D03*
X1028800D02*
D03*
X1002400D02*
D03*
X976000D02*
D03*
X949600D02*
D03*
X923200D02*
D03*
X896800D02*
D03*
X870400D02*
D03*
X844000D02*
D03*
X817600D02*
D03*
X791200D02*
D03*
X764800D02*
D03*
X738400D02*
D03*
D37*
X712227Y588970D02*
D03*
X712000Y123000D02*
D03*
D38*
X317000Y31000D02*
D03*
X363000D02*
D03*
X317000Y97000D02*
D03*
X363000D02*
D03*
X451000Y31000D02*
D03*
X497000D02*
D03*
X451000Y97000D02*
D03*
X497000D02*
D03*
D39*
X121600Y75700D02*
D03*
X172400Y50300D02*
D03*
X147000D02*
D03*
X121600D02*
D03*
X147000Y75700D02*
D03*
D40*
X172400D02*
D03*
D41*
X135600Y432000D02*
D03*
X186400D02*
D03*
D42*
X562500Y254150D02*
D03*
Y279550D02*
D03*
Y304950D02*
D03*
Y330350D02*
D03*
Y355750D02*
D03*
Y381150D02*
D03*
Y406550D02*
D03*
Y431950D02*
D03*
Y457350D02*
D03*
X477500Y254150D02*
D03*
Y279550D02*
D03*
Y304950D02*
D03*
Y330350D02*
D03*
Y355750D02*
D03*
Y381150D02*
D03*
Y406550D02*
D03*
Y431950D02*
D03*
D43*
Y457350D02*
D03*
D44*
X56000Y642600D02*
D03*
X56000Y572600D02*
D03*
Y502600D02*
D03*
D45*
X56000Y668000D02*
D03*
X56000Y598000D02*
D03*
Y528000D02*
D03*
D46*
X655000Y505000D02*
D03*
X641000Y484000D02*
D03*
X747620Y452620D02*
D03*
X739000Y484000D02*
D03*
X179000Y190000D02*
D03*
X161000Y488000D02*
D03*
X129000Y605500D02*
D03*
X844000Y521000D02*
D03*
X1012000Y262000D02*
D03*
X1036000D02*
D03*
X836000Y375650D02*
D03*
X1003000Y444000D02*
D03*
X1176000Y429000D02*
D03*
X1023000Y283000D02*
D03*
X1046000Y337000D02*
D03*
X696000D02*
D03*
Y362000D02*
D03*
X850000Y274000D02*
D03*
X1160000Y262000D02*
D03*
X1119000Y236000D02*
D03*
X1078000Y250000D02*
D03*
X1048000Y222500D02*
D03*
X987000Y222000D02*
D03*
X910000Y208000D02*
D03*
X954000Y194000D02*
D03*
X1192000Y223000D02*
D03*
X1144000Y181000D02*
D03*
X1082000Y194000D02*
D03*
X562000Y125000D02*
D03*
X669000Y270000D02*
D03*
X696000Y292000D02*
D03*
X741000Y324000D02*
D03*
X894213Y323749D02*
D03*
X872000Y292000D02*
D03*
X692000Y194000D02*
D03*
X712000Y225000D02*
D03*
X764000Y222150D02*
D03*
X891000D02*
D03*
X791000Y209000D02*
D03*
X832000Y194000D02*
D03*
X370000Y457000D02*
D03*
X97000Y118000D02*
D03*
X49000Y141000D02*
D03*
X147000Y160000D02*
D03*
X391000Y560000D02*
D03*
X964140Y400140D02*
D03*
X1069000Y490000D02*
D03*
X1082000Y505000D02*
D03*
X1131000Y522000D02*
D03*
X765000Y490000D02*
D03*
X1055000Y505000D02*
D03*
X1051000Y475000D02*
D03*
X976000Y459000D02*
D03*
X900000Y467000D02*
D03*
X800257Y432611D02*
D03*
X849000Y419000D02*
D03*
X1005431Y418012D02*
D03*
X811000Y411000D02*
D03*
X1206535Y460511D02*
D03*
X1028996Y443068D02*
D03*
X1222665Y443270D02*
D03*
X1206634Y194000D02*
D03*
X1131073Y365427D02*
D03*
X1130750Y405250D02*
D03*
X1124000Y327000D02*
D03*
X1066000Y397000D02*
D03*
X753000Y380000D02*
D03*
X906000Y383000D02*
D03*
X908089Y336708D02*
D03*
X906910Y362234D02*
D03*
X893951Y349013D02*
D03*
X1223000Y210000D02*
D03*
X1066000Y375000D02*
D03*
X1060600Y324000D02*
D03*
Y349400D02*
D03*
X1046000Y362100D02*
D03*
X747400Y349400D02*
D03*
M02*
