G04*
G04 #@! TF.GenerationSoftware,Altium Limited,Altium Designer,24.5.2 (23)*
G04*
G04 Layer_Physical_Order=2*
G04 Layer_Color=16711680*
%FSLAX44Y44*%
%MOMM*%
G71*
G04*
G04 #@! TF.SameCoordinates,1EBED2E9-880A-465B-A16B-BDCA1ABA21D8*
G04*
G04*
G04 #@! TF.FilePolarity,Positive*
G04*
G01*
G75*
%ADD15R,1.3500X0.8000*%
%ADD19R,0.7500X1.4500*%
%ADD47C,0.7500*%
%ADD48C,0.9000*%
%ADD49C,0.6000*%
%ADD50C,0.5000*%
%ADD53C,0.8000*%
%ADD55R,1.6000X1.6000*%
%ADD56C,1.6000*%
%ADD57O,2.0000X1.6000*%
%ADD58R,2.0000X2.0000*%
%ADD59C,2.0000*%
%ADD60C,1.6700*%
%ADD61R,1.6700X1.6700*%
%ADD62C,1.7000*%
%ADD63C,1.6200*%
%ADD64R,1.6200X1.6200*%
%ADD65C,1.0750*%
%ADD66R,2.0000X1.6000*%
%ADD67C,1.2700*%
%ADD68R,1.8500X0.6000*%
%ADD69O,1.8500X0.6000*%
G36*
X1240000Y10000D02*
X10000D01*
Y700000D01*
X1240000D01*
Y10000D01*
D02*
G37*
%LPC*%
G36*
X69000Y679000D02*
X43000D01*
Y657000D01*
X69000D01*
Y679000D01*
D02*
G37*
G36*
X155270Y613863D02*
Y606270D01*
X162863D01*
X162284Y608431D01*
X161114Y610459D01*
X159459Y612114D01*
X157431Y613284D01*
X155270Y613863D01*
D02*
G37*
G36*
X152730D02*
X150569Y613284D01*
X148541Y612114D01*
X146886Y610459D01*
X145716Y608431D01*
X145137Y606270D01*
X152730D01*
Y613863D01*
D02*
G37*
G36*
X162863Y603730D02*
X155270D01*
Y596137D01*
X157431Y596716D01*
X159459Y597886D01*
X161114Y599541D01*
X162284Y601569D01*
X162863Y603730D01*
D02*
G37*
G36*
X152730D02*
X145137D01*
X145716Y601569D01*
X146886Y599541D01*
X148541Y597886D01*
X150569Y596716D01*
X152730Y596137D01*
Y603730D01*
D02*
G37*
G36*
X69000Y609000D02*
X43000D01*
Y587000D01*
X69000D01*
Y609000D01*
D02*
G37*
G36*
X907000Y680117D02*
X560000D01*
X557659Y679652D01*
X555674Y678326D01*
X498674Y621326D01*
X497348Y619341D01*
X496883Y617000D01*
Y393000D01*
X497348Y390659D01*
X498674Y388674D01*
X510524Y376824D01*
X512509Y375498D01*
X514850Y375033D01*
X553330D01*
X553698Y374396D01*
X555746Y372348D01*
X558254Y370900D01*
X561052Y370150D01*
X563948D01*
X566746Y370900D01*
X569254Y372348D01*
X571302Y374396D01*
X572750Y376904D01*
X573500Y379702D01*
Y382598D01*
X572750Y385396D01*
X571302Y387904D01*
X569254Y389952D01*
X566746Y391400D01*
X563948Y392150D01*
X561052D01*
X558254Y391400D01*
X555746Y389952D01*
X553698Y387904D01*
X553330Y387268D01*
X517384D01*
X509118Y395534D01*
Y614466D01*
X562534Y667883D01*
X904466D01*
X943710Y628639D01*
Y598544D01*
X942858Y598052D01*
X940745Y595939D01*
X939251Y593351D01*
X938477Y590464D01*
Y587476D01*
X939251Y584589D01*
X940745Y582001D01*
X942858Y579888D01*
X945446Y578393D01*
X948333Y577620D01*
X951321D01*
X954208Y578393D01*
X956796Y579888D01*
X958909Y582001D01*
X960404Y584589D01*
X961177Y587476D01*
Y590464D01*
X960404Y593351D01*
X958909Y595939D01*
X956796Y598052D01*
X955945Y598544D01*
Y631173D01*
X955479Y633514D01*
X954153Y635499D01*
X911326Y678326D01*
X909341Y679652D01*
X907000Y680117D01*
D02*
G37*
G36*
X891000Y663118D02*
X570000D01*
X567659Y662652D01*
X565674Y661326D01*
X514674Y610326D01*
X513348Y608341D01*
X512882Y606000D01*
Y416000D01*
X513348Y413659D01*
X514674Y411674D01*
X524124Y402224D01*
X526109Y400898D01*
X528450Y400433D01*
X553330D01*
X553698Y399796D01*
X555746Y397748D01*
X558254Y396300D01*
X561052Y395550D01*
X563948D01*
X566746Y396300D01*
X569254Y397748D01*
X571302Y399796D01*
X572750Y402304D01*
X573500Y405102D01*
Y407998D01*
X572750Y410796D01*
X571302Y413304D01*
X569254Y415352D01*
X566746Y416800D01*
X563948Y417550D01*
X561052D01*
X558254Y416800D01*
X555746Y415352D01*
X553698Y413304D01*
X553330Y412668D01*
X530984D01*
X525117Y418534D01*
Y603466D01*
X572534Y650882D01*
X888466D01*
X917310Y622039D01*
Y598544D01*
X916458Y598052D01*
X914345Y595939D01*
X912851Y593351D01*
X912077Y590464D01*
Y587476D01*
X912851Y584589D01*
X914345Y582001D01*
X916458Y579888D01*
X919046Y578393D01*
X921933Y577620D01*
X924921D01*
X927808Y578393D01*
X930396Y579888D01*
X932509Y582001D01*
X934004Y584589D01*
X934777Y587476D01*
Y590464D01*
X934004Y593351D01*
X932509Y595939D01*
X930396Y598052D01*
X929545Y598544D01*
Y624573D01*
X929079Y626914D01*
X927753Y628899D01*
X895326Y661326D01*
X893341Y662652D01*
X891000Y663118D01*
D02*
G37*
G36*
X878000Y645117D02*
X581000D01*
X578659Y644652D01*
X576674Y643326D01*
X532674Y599326D01*
X531348Y597341D01*
X530882Y595000D01*
Y437000D01*
X531348Y434659D01*
X532674Y432674D01*
X537724Y427624D01*
X539709Y426298D01*
X542050Y425832D01*
X553330D01*
X553698Y425196D01*
X555746Y423148D01*
X558254Y421700D01*
X561052Y420950D01*
X563948D01*
X566746Y421700D01*
X569254Y423148D01*
X571302Y425196D01*
X572750Y427704D01*
X573500Y430502D01*
Y433398D01*
X572750Y436196D01*
X571302Y438704D01*
X569254Y440752D01*
X566746Y442200D01*
X563948Y442950D01*
X561052D01*
X558254Y442200D01*
X555746Y440752D01*
X553698Y438704D01*
X553330Y438068D01*
X544584D01*
X543117Y439534D01*
Y592466D01*
X583534Y632882D01*
X875466D01*
X890910Y617439D01*
Y598544D01*
X890058Y598052D01*
X887945Y595939D01*
X886451Y593351D01*
X885677Y590464D01*
Y587476D01*
X886451Y584589D01*
X887945Y582001D01*
X890058Y579888D01*
X892646Y578393D01*
X895533Y577620D01*
X898521D01*
X901408Y578393D01*
X903996Y579888D01*
X906109Y582001D01*
X907604Y584589D01*
X908377Y587476D01*
Y590464D01*
X907604Y593351D01*
X906109Y595939D01*
X903996Y598052D01*
X903145Y598544D01*
Y619973D01*
X902679Y622314D01*
X901353Y624299D01*
X882326Y643326D01*
X880341Y644652D01*
X878000Y645117D01*
D02*
G37*
G36*
X865000Y627118D02*
X590000D01*
X587659Y626652D01*
X585674Y625326D01*
X558174Y597826D01*
X556848Y595841D01*
X556382Y593500D01*
Y466520D01*
X555746Y466152D01*
X553698Y464104D01*
X552250Y461596D01*
X551500Y458798D01*
Y455902D01*
X552250Y453104D01*
X553698Y450596D01*
X555746Y448548D01*
X558254Y447100D01*
X561052Y446350D01*
X563948D01*
X566746Y447100D01*
X569254Y448548D01*
X571302Y450596D01*
X572750Y453104D01*
X573500Y455902D01*
Y458798D01*
X572750Y461596D01*
X571302Y464104D01*
X569254Y466152D01*
X568618Y466520D01*
Y590966D01*
X592534Y614883D01*
X862466D01*
X864510Y612839D01*
Y598544D01*
X863658Y598052D01*
X861545Y595939D01*
X860051Y593351D01*
X859277Y590464D01*
Y587476D01*
X860051Y584589D01*
X861545Y582001D01*
X863658Y579888D01*
X866246Y578393D01*
X869133Y577620D01*
X872121D01*
X875008Y578393D01*
X877596Y579888D01*
X879709Y582001D01*
X881204Y584589D01*
X881977Y587476D01*
Y590464D01*
X881204Y593351D01*
X879709Y595939D01*
X877596Y598052D01*
X876745Y598544D01*
Y615373D01*
X876279Y617714D01*
X874953Y619699D01*
X869326Y625326D01*
X867341Y626652D01*
X865000Y627118D01*
D02*
G37*
G36*
X845721Y600320D02*
X842733D01*
X839846Y599546D01*
X837258Y598052D01*
X835145Y595939D01*
X833651Y593351D01*
X832877Y590464D01*
Y587476D01*
X833651Y584589D01*
X835145Y582001D01*
X837258Y579888D01*
X838621Y579101D01*
Y559000D01*
X834480D01*
Y548000D01*
X834480Y545000D01*
X834480Y542000D01*
Y531000D01*
X836698D01*
X837326Y529987D01*
X837777Y528000D01*
X836518Y526741D01*
X835287Y524609D01*
X834650Y522231D01*
Y519769D01*
X835287Y517391D01*
X836518Y515259D01*
X838259Y513518D01*
X840391Y512287D01*
X842769Y511650D01*
X845231D01*
X847609Y512287D01*
X849741Y513518D01*
X851482Y515259D01*
X852713Y517391D01*
X853350Y519769D01*
Y522231D01*
X852713Y524609D01*
X851482Y526741D01*
X850223Y528000D01*
X850674Y529987D01*
X851302Y531000D01*
X853980D01*
Y542000D01*
X853980Y545000D01*
X853980Y548000D01*
Y559000D01*
X849836D01*
Y579103D01*
X851196Y579888D01*
X853309Y582001D01*
X854804Y584589D01*
X855577Y587476D01*
Y590464D01*
X854804Y593351D01*
X853309Y595939D01*
X851196Y598052D01*
X848608Y599546D01*
X845721Y600320D01*
D02*
G37*
G36*
X1109721D02*
X1106733D01*
X1103846Y599546D01*
X1101258Y598052D01*
X1099145Y595939D01*
X1097651Y593351D01*
X1096877Y590464D01*
Y587476D01*
X1097651Y584589D01*
X1099145Y582001D01*
X1101258Y579888D01*
X1102621Y579101D01*
Y559000D01*
X1098480D01*
Y548000D01*
X1098480Y545000D01*
X1098480Y542000D01*
Y531000D01*
X1117980D01*
Y532392D01*
X1124300D01*
X1125152Y529807D01*
X1125169Y529392D01*
X1123518Y527741D01*
X1122287Y525609D01*
X1121650Y523231D01*
Y520769D01*
X1122287Y518391D01*
X1123518Y516259D01*
X1125259Y514518D01*
X1125267Y514513D01*
Y412881D01*
X1125009Y412732D01*
X1123268Y410991D01*
X1122037Y408859D01*
X1121400Y406481D01*
Y404019D01*
X1122037Y401641D01*
X1123268Y399509D01*
X1125009Y397768D01*
X1127141Y396537D01*
X1128744Y396108D01*
X1128349Y393108D01*
X1108428D01*
X1105880Y394200D01*
X1105880Y396108D01*
Y406200D01*
X1099238D01*
Y436370D01*
X1098811Y438516D01*
X1097595Y440335D01*
X1074608Y463323D01*
Y482441D01*
X1074741Y482518D01*
X1076482Y484259D01*
X1077713Y486391D01*
X1078350Y488769D01*
Y491231D01*
X1077784Y493344D01*
X1078306Y494241D01*
X1079857Y495894D01*
X1080769Y495650D01*
X1083231D01*
X1085609Y496287D01*
X1087741Y497518D01*
X1089482Y499259D01*
X1090713Y501391D01*
X1091350Y503769D01*
Y506231D01*
X1090713Y508609D01*
X1089482Y510741D01*
X1087741Y512482D01*
X1087523Y512608D01*
Y531000D01*
X1091580D01*
Y542000D01*
X1091580Y545000D01*
X1091580Y548000D01*
Y559000D01*
X1087436D01*
Y579103D01*
X1088796Y579888D01*
X1090909Y582001D01*
X1092404Y584589D01*
X1093177Y587476D01*
Y590464D01*
X1092404Y593351D01*
X1090909Y595939D01*
X1088796Y598052D01*
X1086208Y599546D01*
X1083321Y600320D01*
X1080333D01*
X1077446Y599546D01*
X1074858Y598052D01*
X1072745Y595939D01*
X1071251Y593351D01*
X1070477Y590464D01*
Y587476D01*
X1071251Y584589D01*
X1072745Y582001D01*
X1074858Y579888D01*
X1076221Y579101D01*
Y559000D01*
X1072080D01*
Y548000D01*
X1072080Y545000D01*
X1072080Y542000D01*
Y531000D01*
X1076307D01*
Y512510D01*
X1076259Y512482D01*
X1074518Y510741D01*
X1073287Y508609D01*
X1072650Y506231D01*
Y503769D01*
X1073216Y501656D01*
X1072694Y500759D01*
X1071143Y499106D01*
X1070231Y499350D01*
X1067769D01*
X1065675Y498789D01*
X1064921Y499328D01*
X1063554Y501116D01*
X1063713Y501391D01*
X1064350Y503769D01*
Y506231D01*
X1063713Y508609D01*
X1062482Y510741D01*
X1060823Y512400D01*
Y531000D01*
X1065180D01*
Y542000D01*
X1065180Y545000D01*
X1065180Y548000D01*
Y559000D01*
X1061036D01*
Y579103D01*
X1062396Y579888D01*
X1064509Y582001D01*
X1066004Y584589D01*
X1066777Y587476D01*
Y590464D01*
X1066004Y593351D01*
X1064509Y595939D01*
X1062396Y598052D01*
X1059808Y599546D01*
X1056921Y600320D01*
X1053933D01*
X1051046Y599546D01*
X1048458Y598052D01*
X1046345Y595939D01*
X1044851Y593351D01*
X1044077Y590464D01*
Y587476D01*
X1044851Y584589D01*
X1046345Y582001D01*
X1048458Y579888D01*
X1049821Y579101D01*
Y559000D01*
X1045680D01*
Y548000D01*
X1045680Y545000D01*
X1045680Y542000D01*
Y531000D01*
X1049607D01*
Y512683D01*
X1049259Y512482D01*
X1047518Y510741D01*
X1046287Y508609D01*
X1045650Y506231D01*
Y503769D01*
X1046287Y501391D01*
X1047518Y499259D01*
X1049259Y497518D01*
X1051391Y496287D01*
X1053769Y495650D01*
X1056231D01*
X1058326Y496211D01*
X1059079Y495672D01*
X1060446Y493884D01*
X1060287Y493609D01*
X1059650Y491231D01*
Y488769D01*
X1060287Y486391D01*
X1061518Y484259D01*
X1063259Y482518D01*
X1063392Y482441D01*
Y461000D01*
X1063819Y458854D01*
X1065035Y457035D01*
X1088022Y434047D01*
Y406200D01*
X1081380D01*
Y394309D01*
X1081380Y394200D01*
X1081380Y394200D01*
X1081840Y393548D01*
X1082636Y391200D01*
X1081728Y389841D01*
X1081263Y387500D01*
X1081728Y385159D01*
X1083054Y383174D01*
X1083390Y382950D01*
Y379350D01*
X1083054Y379126D01*
X1081728Y377141D01*
X1081263Y374800D01*
X1081728Y372459D01*
X1081573Y371774D01*
X1080050Y369571D01*
X1079351Y369580D01*
X1075310Y373620D01*
X1075350Y373769D01*
Y376231D01*
X1074713Y378609D01*
X1073482Y380741D01*
X1071741Y382482D01*
X1069609Y383713D01*
X1067809Y384195D01*
X1066760Y385883D01*
X1066309Y387350D01*
X1066510Y387650D01*
X1067231D01*
X1069609Y388287D01*
X1071741Y389518D01*
X1073482Y391259D01*
X1074713Y393391D01*
X1075350Y395769D01*
Y398231D01*
X1074713Y400609D01*
X1073482Y402741D01*
X1071741Y404482D01*
X1069609Y405713D01*
X1067231Y406350D01*
X1064769D01*
X1062391Y405713D01*
X1060259Y404482D01*
X1058518Y402741D01*
X1057287Y400609D01*
X1056650Y398231D01*
Y396167D01*
X1053590Y393108D01*
X1035465D01*
X1034632Y394939D01*
X1034362Y396108D01*
X1035532Y397859D01*
X1035997Y400200D01*
X1035532Y402541D01*
X1034206Y404526D01*
X1032221Y405852D01*
X1029880Y406318D01*
X1029747D01*
Y412096D01*
X1040534Y422882D01*
X1044630D01*
Y418750D01*
X1058130D01*
Y439250D01*
X1057998D01*
Y468775D01*
X1058482Y469259D01*
X1059713Y471391D01*
X1060350Y473769D01*
Y476231D01*
X1059713Y478609D01*
X1058482Y480741D01*
X1056741Y482482D01*
X1054609Y483713D01*
X1052231Y484350D01*
X1049769D01*
X1047391Y483713D01*
X1045259Y482482D01*
X1043518Y480741D01*
X1042287Y478609D01*
X1041650Y476231D01*
Y473769D01*
X1042287Y471391D01*
X1043518Y469259D01*
X1044382Y468395D01*
Y435117D01*
X1038512D01*
X1037585Y436124D01*
X1036835Y437944D01*
X1037709Y439459D01*
X1038346Y441837D01*
Y444299D01*
X1037709Y446677D01*
X1036478Y448809D01*
X1034737Y450550D01*
X1034621Y450617D01*
Y531000D01*
X1038780D01*
Y542000D01*
X1038780Y545000D01*
X1038780Y548000D01*
Y559000D01*
X1034636D01*
Y579103D01*
X1035996Y579888D01*
X1038109Y582001D01*
X1039604Y584589D01*
X1040377Y587476D01*
Y590464D01*
X1039604Y593351D01*
X1038109Y595939D01*
X1035996Y598052D01*
X1033408Y599546D01*
X1030521Y600320D01*
X1027533D01*
X1024646Y599546D01*
X1022058Y598052D01*
X1019945Y595939D01*
X1018451Y593351D01*
X1017677Y590464D01*
Y587476D01*
X1018451Y584589D01*
X1019945Y582001D01*
X1022058Y579888D01*
X1023421Y579101D01*
Y559000D01*
X1019280D01*
Y548000D01*
X1019280Y545000D01*
X1019280Y542000D01*
Y531000D01*
X1023406D01*
Y450636D01*
X1023255Y450550D01*
X1021515Y448809D01*
X1020284Y446677D01*
X1019646Y444299D01*
Y441837D01*
X1020284Y439459D01*
X1021515Y437327D01*
X1023255Y435586D01*
X1025387Y434355D01*
X1027765Y433718D01*
X1029824D01*
X1030575Y432733D01*
X1031229Y430881D01*
X1019304Y418956D01*
X1017978Y416971D01*
X1017513Y414630D01*
Y406318D01*
X1017380D01*
X1015039Y405852D01*
X1014038Y405183D01*
X1011065Y406485D01*
X1011038Y406512D01*
Y410453D01*
X1011171Y410530D01*
X1012912Y412271D01*
X1014143Y414403D01*
X1014781Y416781D01*
Y419243D01*
X1014143Y421621D01*
X1012912Y423753D01*
X1011171Y425494D01*
X1009039Y426725D01*
X1006661Y427362D01*
X1004200D01*
X1001822Y426725D01*
X999689Y425494D01*
X997949Y423753D01*
X996718Y421621D01*
X996080Y419243D01*
Y416781D01*
X996718Y414403D01*
X997949Y412271D01*
X999689Y410530D01*
X999823Y410453D01*
Y386753D01*
X991214Y378145D01*
X988214Y379388D01*
Y410465D01*
X987787Y412611D01*
X986572Y414430D01*
X983036Y417965D01*
X981217Y419181D01*
X979071Y419608D01*
X944679D01*
X942533Y419181D01*
X940714Y417965D01*
X937785Y415036D01*
X936569Y413217D01*
X936142Y411071D01*
Y406200D01*
X929500D01*
Y394200D01*
X929500D01*
X930601Y391656D01*
X930756Y391200D01*
X929848Y389841D01*
X929382Y387500D01*
X929848Y385159D01*
X931174Y383174D01*
X931510Y382950D01*
Y379350D01*
X931174Y379126D01*
X929848Y377141D01*
X929382Y374800D01*
X929848Y372459D01*
X929766Y371941D01*
X928212Y369507D01*
X927433Y369497D01*
X915310Y381620D01*
X915350Y381769D01*
Y384231D01*
X914713Y386609D01*
X913482Y388741D01*
X911741Y390482D01*
X909609Y391713D01*
X907231Y392350D01*
X904769D01*
X902391Y391713D01*
X900259Y390482D01*
X898518Y388741D01*
X897287Y386609D01*
X896650Y384231D01*
Y381769D01*
X897287Y379391D01*
X898518Y377259D01*
X900259Y375518D01*
X902391Y374287D01*
X903284Y374048D01*
X903301Y370982D01*
X903290Y370940D01*
X901169Y369716D01*
X899428Y367975D01*
X899313Y367775D01*
X883686D01*
X882872Y369390D01*
X882527Y370775D01*
X883652Y372459D01*
X884118Y374800D01*
X883652Y377141D01*
X882326Y379126D01*
X881990Y379350D01*
Y382950D01*
X882326Y383174D01*
X883652Y385159D01*
X884118Y387500D01*
X883652Y389841D01*
X882326Y391826D01*
X881990Y392050D01*
Y395650D01*
X882326Y395874D01*
X883652Y397859D01*
X884118Y400200D01*
X883652Y402541D01*
X882326Y404526D01*
X880341Y405852D01*
X878000Y406318D01*
X877868D01*
Y418216D01*
X882534Y422882D01*
X892750D01*
Y418750D01*
X906250D01*
Y428558D01*
X906308Y429000D01*
Y460085D01*
X907482Y461259D01*
X908713Y463391D01*
X909350Y465769D01*
Y468231D01*
X908713Y470609D01*
X907482Y472741D01*
X905741Y474482D01*
X903609Y475713D01*
X901231Y476350D01*
X898769D01*
X896391Y475713D01*
X894259Y474482D01*
X892518Y472741D01*
X891287Y470609D01*
X890650Y468231D01*
Y465769D01*
X891287Y463391D01*
X892518Y461259D01*
X892692Y461085D01*
Y435117D01*
X880000D01*
X877659Y434652D01*
X875674Y433326D01*
X867424Y425076D01*
X866098Y423091D01*
X865632Y420750D01*
Y406318D01*
X865500D01*
X863159Y405852D01*
X861174Y404526D01*
X859848Y402541D01*
X859382Y400200D01*
X859848Y397859D01*
X861018Y396108D01*
X860749Y394939D01*
X859915Y393108D01*
X849823D01*
X848965Y393965D01*
X847146Y395181D01*
X845000Y395608D01*
X832781D01*
X831538Y398608D01*
X844013Y411083D01*
X845391Y410287D01*
X847769Y409650D01*
X850231D01*
X852609Y410287D01*
X854741Y411518D01*
X856482Y413259D01*
X857713Y415391D01*
X858350Y417769D01*
Y420231D01*
X857713Y422609D01*
X856482Y424741D01*
X854741Y426482D01*
X852609Y427713D01*
X850231Y428350D01*
X847769D01*
X845391Y427713D01*
X843259Y426482D01*
X841518Y424741D01*
X840321Y422668D01*
X838561Y421492D01*
X821423Y404354D01*
X819023Y406196D01*
X819713Y407391D01*
X820350Y409769D01*
Y412231D01*
X820310Y412380D01*
X821965Y414035D01*
X823181Y415854D01*
X823608Y418000D01*
Y531000D01*
X827580D01*
Y542000D01*
X827580Y545000D01*
X827580Y548000D01*
Y559000D01*
X823436D01*
Y579103D01*
X824796Y579888D01*
X826909Y582001D01*
X828404Y584589D01*
X829177Y587476D01*
Y590464D01*
X828404Y593351D01*
X826909Y595939D01*
X824796Y598052D01*
X822208Y599546D01*
X819321Y600320D01*
X816333D01*
X813446Y599546D01*
X810858Y598052D01*
X808745Y595939D01*
X807251Y593351D01*
X806477Y590464D01*
Y587476D01*
X807251Y584589D01*
X808745Y582001D01*
X810858Y579888D01*
X812221Y579101D01*
Y559000D01*
X808080D01*
Y548000D01*
X808080Y545000D01*
X808080Y542000D01*
Y531000D01*
X812392D01*
Y435038D01*
X809392Y434643D01*
X808970Y436220D01*
X807739Y438352D01*
X805998Y440093D01*
X803866Y441323D01*
X801488Y441961D01*
X799026D01*
X796648Y441323D01*
X796290Y441117D01*
X794448Y443517D01*
X795395Y444465D01*
X796611Y446284D01*
X797038Y448430D01*
Y531000D01*
X801180D01*
Y542000D01*
X801180Y545000D01*
X801180Y548000D01*
Y559000D01*
X797036D01*
Y579103D01*
X798396Y579888D01*
X800509Y582001D01*
X802004Y584589D01*
X802777Y587476D01*
Y590464D01*
X802004Y593351D01*
X800509Y595939D01*
X798396Y598052D01*
X795808Y599546D01*
X792921Y600320D01*
X789933D01*
X787046Y599546D01*
X784458Y598052D01*
X782345Y595939D01*
X780851Y593351D01*
X780077Y590464D01*
Y587476D01*
X780851Y584589D01*
X782345Y582001D01*
X784458Y579888D01*
X785821Y579101D01*
Y559000D01*
X781680D01*
Y548000D01*
X781680Y545000D01*
X781680Y542000D01*
Y531000D01*
X785822D01*
Y450753D01*
X779035Y443965D01*
X777819Y442146D01*
X777392Y440000D01*
Y425323D01*
X764035Y411965D01*
X762819Y410146D01*
X762392Y408000D01*
Y394000D01*
X762819Y391854D01*
X764035Y390035D01*
X770535Y383535D01*
X772354Y382319D01*
X774500Y381892D01*
X778035D01*
X778868Y380061D01*
X779138Y378892D01*
X777968Y377141D01*
X777503Y374800D01*
X777968Y372459D01*
X779138Y370708D01*
X778868Y369539D01*
X778035Y367708D01*
X773223D01*
X762310Y378620D01*
X762350Y378769D01*
Y381231D01*
X761713Y383609D01*
X760482Y385741D01*
X758741Y387482D01*
X756609Y388713D01*
X754231Y389350D01*
X751769D01*
X749391Y388713D01*
X747259Y387482D01*
X745518Y385741D01*
X744287Y383609D01*
X743650Y381231D01*
Y378769D01*
X744287Y376391D01*
X745518Y374259D01*
X747259Y372518D01*
X749391Y371287D01*
X751769Y370650D01*
X754231D01*
X754380Y370690D01*
X766935Y358135D01*
X768754Y356919D01*
X770900Y356492D01*
X778035D01*
X778868Y354661D01*
X779138Y353492D01*
X777968Y351741D01*
X777503Y349400D01*
X777968Y347059D01*
X779138Y345308D01*
X778868Y344139D01*
X778035Y342308D01*
X764700D01*
X762554Y341881D01*
X760735Y340665D01*
X751164Y331095D01*
X748482Y329741D01*
X746741Y331482D01*
X744609Y332713D01*
X742231Y333350D01*
X739769D01*
X737391Y332713D01*
X735259Y331482D01*
X734442Y330665D01*
X732931Y330831D01*
X731514Y333813D01*
X731521Y333983D01*
X731772Y334359D01*
X732237Y336700D01*
X731772Y339041D01*
X730602Y340792D01*
X730872Y341961D01*
X731705Y343792D01*
X739841D01*
X739918Y343659D01*
X741659Y341918D01*
X743791Y340687D01*
X746169Y340050D01*
X748631D01*
X751009Y340687D01*
X753141Y341918D01*
X754882Y343659D01*
X756113Y345791D01*
X756750Y348169D01*
Y350631D01*
X756113Y353009D01*
X754882Y355141D01*
X753141Y356882D01*
X751009Y358113D01*
X748631Y358750D01*
X746169D01*
X743791Y358113D01*
X741659Y356882D01*
X739918Y355141D01*
X739841Y355008D01*
X731705D01*
X730872Y356839D01*
X730602Y358008D01*
X731772Y359759D01*
X732237Y362100D01*
X731772Y364441D01*
X730446Y366426D01*
X730110Y366650D01*
Y370250D01*
X730446Y370474D01*
X731772Y372459D01*
X732237Y374800D01*
X731772Y377141D01*
X730446Y379126D01*
X730110Y379350D01*
Y382950D01*
X730446Y383174D01*
X731772Y385159D01*
X732237Y387500D01*
X731772Y389841D01*
X730446Y391826D01*
X730110Y392050D01*
Y395650D01*
X730446Y395874D01*
X731772Y397859D01*
X732237Y400200D01*
X731772Y402541D01*
X730446Y404526D01*
X728461Y405852D01*
X726120Y406318D01*
X725987D01*
Y417336D01*
X731534Y422882D01*
X740870D01*
Y418750D01*
X754370D01*
Y428558D01*
X754428Y429000D01*
Y446205D01*
X755102Y446879D01*
X756333Y449011D01*
X756970Y451389D01*
Y453851D01*
X756333Y456229D01*
X755102Y458361D01*
X753361Y460102D01*
X751229Y461333D01*
X748851Y461970D01*
X746389D01*
X744011Y461333D01*
X741879Y460102D01*
X740138Y458361D01*
X738907Y456229D01*
X738270Y453851D01*
Y451389D01*
X738907Y449011D01*
X740138Y446879D01*
X740812Y446205D01*
Y435117D01*
X729000D01*
X726659Y434652D01*
X724674Y433326D01*
X715544Y424196D01*
X714218Y422211D01*
X713753Y419870D01*
Y406318D01*
X713620D01*
X711279Y405852D01*
X709294Y404526D01*
X708175Y402851D01*
X706967Y402412D01*
X704829Y402136D01*
X704608Y402390D01*
Y424677D01*
X716195Y436265D01*
X717411Y438084D01*
X717838Y440230D01*
Y531000D01*
X721980D01*
Y542000D01*
X721980Y545000D01*
X721980Y548000D01*
Y559000D01*
X717838D01*
Y577620D01*
X723577D01*
Y600320D01*
X700877D01*
Y577620D01*
X706622D01*
Y559000D01*
X702480D01*
Y548000D01*
X702480Y545000D01*
X702480Y542000D01*
Y531000D01*
X706622D01*
Y442553D01*
X695035Y430965D01*
X693819Y429146D01*
X693392Y427000D01*
Y392000D01*
X693819Y389854D01*
X695035Y388035D01*
X699535Y383535D01*
X699725Y383408D01*
X698815Y380408D01*
X677800D01*
X675654Y379981D01*
X673835Y378765D01*
X667035Y371965D01*
X665819Y370146D01*
X665392Y368000D01*
Y299000D01*
X665819Y296854D01*
X667035Y295035D01*
X674035Y288035D01*
X675854Y286819D01*
X678000Y286392D01*
X688441D01*
X688518Y286259D01*
X690259Y284518D01*
X692391Y283287D01*
X694769Y282650D01*
X697231D01*
X699609Y283287D01*
X701741Y284518D01*
X703482Y286259D01*
X704713Y288391D01*
X705350Y290769D01*
Y293231D01*
X704713Y295609D01*
X703482Y297741D01*
X701741Y299482D01*
X699609Y300713D01*
X697231Y301350D01*
X694769D01*
X692391Y300713D01*
X690259Y299482D01*
X688518Y297741D01*
X688441Y297608D01*
X680323D01*
X676608Y301323D01*
Y365677D01*
X680123Y369192D01*
X685892D01*
X687624Y366192D01*
X687287Y365609D01*
X686650Y363231D01*
Y360769D01*
X687287Y358391D01*
X688518Y356259D01*
X690259Y354518D01*
X692391Y353287D01*
X694769Y352650D01*
X697231D01*
X699609Y353287D01*
X701741Y354518D01*
X703482Y356259D01*
X703588Y356442D01*
X707960D01*
X708779Y354775D01*
X709105Y353442D01*
X707968Y351741D01*
X707503Y349400D01*
X707968Y347059D01*
X709038Y345458D01*
X708601Y343852D01*
X707810Y342458D01*
X703645D01*
X703482Y342741D01*
X701741Y344482D01*
X699609Y345713D01*
X697231Y346350D01*
X694769D01*
X692391Y345713D01*
X690259Y344482D01*
X688518Y342741D01*
X687287Y340609D01*
X686650Y338231D01*
Y335769D01*
X687287Y333391D01*
X688518Y331259D01*
X690259Y329518D01*
X692391Y328287D01*
X694769Y327650D01*
X697231D01*
X699609Y328287D01*
X701741Y329518D01*
X703465Y331242D01*
X708259D01*
X709141Y328758D01*
X709239Y328242D01*
X707968Y326341D01*
X707503Y324000D01*
X707968Y321659D01*
X709294Y319674D01*
X709630Y319450D01*
Y315850D01*
X709294Y315626D01*
X707968Y313641D01*
X707503Y311300D01*
X707968Y308959D01*
X709294Y306974D01*
X711279Y305648D01*
X713620Y305182D01*
X726120D01*
X728461Y305648D01*
X730446Y306974D01*
X731772Y308959D01*
X732237Y311300D01*
X731772Y313641D01*
X731521Y314017D01*
X731514Y314187D01*
X732847Y316993D01*
X735392Y314695D01*
Y283323D01*
X727677Y275608D01*
X676559D01*
X676482Y275741D01*
X674741Y277482D01*
X672609Y278713D01*
X670231Y279350D01*
X667769D01*
X665391Y278713D01*
X663608Y277683D01*
X662245Y278090D01*
X660608Y279073D01*
Y497441D01*
X660741Y497518D01*
X662482Y499259D01*
X663713Y501391D01*
X664350Y503769D01*
Y506231D01*
X663713Y508609D01*
X662482Y510741D01*
X660741Y512482D01*
X658609Y513713D01*
X656231Y514350D01*
X653769D01*
X651391Y513713D01*
X649259Y512482D01*
X647518Y510741D01*
X646287Y508609D01*
X645650Y506231D01*
Y503769D01*
X646287Y501391D01*
X647518Y499259D01*
X649259Y497518D01*
X649392Y497441D01*
Y493073D01*
X647755Y492090D01*
X646392Y491683D01*
X644609Y492713D01*
X642231Y493350D01*
X639769D01*
X637391Y492713D01*
X635259Y491482D01*
X633518Y489741D01*
X632287Y487609D01*
X631650Y485231D01*
Y482769D01*
X632287Y480391D01*
X633518Y478259D01*
X635259Y476518D01*
X635392Y476441D01*
Y205000D01*
X635819Y202854D01*
X637035Y201035D01*
X648035Y190035D01*
X649854Y188819D01*
X652000Y188392D01*
X684441D01*
X684518Y188259D01*
X686259Y186518D01*
X688391Y185287D01*
X690769Y184650D01*
X693231D01*
X695609Y185287D01*
X697741Y186518D01*
X699482Y188259D01*
X700713Y190391D01*
X701350Y192769D01*
Y195231D01*
X700713Y197609D01*
X699482Y199741D01*
X697741Y201482D01*
X695609Y202713D01*
X693231Y203350D01*
X690769D01*
X688391Y202713D01*
X686259Y201482D01*
X684518Y199741D01*
X684441Y199608D01*
X654323D01*
X646608Y207323D01*
Y258621D01*
X649608Y258917D01*
X649819Y257854D01*
X651035Y256035D01*
X658035Y249035D01*
X659854Y247819D01*
X662000Y247392D01*
X741000D01*
X743146Y247819D01*
X744965Y249035D01*
X755286Y259355D01*
X758580Y258500D01*
X758601Y258429D01*
X758555Y256670D01*
X734665Y232780D01*
X733449Y230961D01*
X733022Y228815D01*
Y181000D01*
X728880D01*
Y170000D01*
X728880Y167000D01*
X728880Y164000D01*
Y153000D01*
X732907D01*
Y132935D01*
X731431Y132082D01*
X729318Y129969D01*
X727823Y127381D01*
X727050Y124494D01*
Y121506D01*
X727823Y118619D01*
X729318Y116031D01*
X731431Y113918D01*
X734019Y112423D01*
X736906Y111650D01*
X739894D01*
X742781Y112423D01*
X745369Y113918D01*
X747482Y116031D01*
X748977Y118619D01*
X749750Y121506D01*
Y124494D01*
X748977Y127381D01*
X747482Y129969D01*
X745369Y132082D01*
X744123Y132802D01*
Y153000D01*
X748380D01*
Y164000D01*
X748380Y167000D01*
X748380Y170000D01*
Y181000D01*
X744238D01*
Y226492D01*
X768965Y251220D01*
X770181Y253039D01*
X770608Y255185D01*
Y315677D01*
X773131Y318201D01*
X782019D01*
X783620Y317882D01*
X796120D01*
X798392Y318334D01*
X798463Y318347D01*
X801392Y316699D01*
Y215700D01*
X798807Y214848D01*
X798392Y214831D01*
X796741Y216482D01*
X794609Y217713D01*
X792231Y218350D01*
X789769D01*
X787391Y217713D01*
X785259Y216482D01*
X783518Y214741D01*
X782287Y212609D01*
X781650Y210231D01*
Y207769D01*
X782287Y205391D01*
X783518Y203259D01*
X785259Y201518D01*
X785607Y201317D01*
Y181000D01*
X781680D01*
Y170000D01*
X781680Y167000D01*
X781680Y164000D01*
Y153000D01*
X785707D01*
Y132935D01*
X784231Y132082D01*
X782118Y129969D01*
X780623Y127381D01*
X779850Y124494D01*
Y121506D01*
X780623Y118619D01*
X782118Y116031D01*
X784231Y113918D01*
X786819Y112423D01*
X789706Y111650D01*
X792694D01*
X795581Y112423D01*
X798169Y113918D01*
X800282Y116031D01*
X801777Y118619D01*
X802550Y121506D01*
Y124494D01*
X801777Y127381D01*
X800282Y129969D01*
X798169Y132082D01*
X796923Y132802D01*
Y153000D01*
X801180D01*
Y164000D01*
X801180Y167000D01*
X801180Y170000D01*
Y181000D01*
X796823D01*
Y200842D01*
X797688Y201850D01*
X798438Y202411D01*
X799461Y202269D01*
X801510Y201406D01*
X801819Y199854D01*
X803035Y198035D01*
X812222Y188847D01*
Y181000D01*
X808080D01*
Y170000D01*
X808080Y167000D01*
X808080Y164000D01*
Y153000D01*
X812107D01*
Y132935D01*
X810631Y132082D01*
X808518Y129969D01*
X807023Y127381D01*
X806250Y124494D01*
Y121506D01*
X807023Y118619D01*
X808518Y116031D01*
X810631Y113918D01*
X813219Y112423D01*
X816106Y111650D01*
X819094D01*
X821981Y112423D01*
X824569Y113918D01*
X826682Y116031D01*
X828176Y118619D01*
X828950Y121506D01*
Y124494D01*
X828176Y127381D01*
X826682Y129969D01*
X824569Y132082D01*
X823323Y132802D01*
Y153000D01*
X827580D01*
Y164000D01*
X827580Y167000D01*
X827580Y170000D01*
Y181000D01*
X823438D01*
Y185097D01*
X825653Y186213D01*
X826438Y186415D01*
X828391Y185287D01*
X830769Y184650D01*
X833231D01*
X835294Y185203D01*
X837705Y183402D01*
X837061Y181000D01*
X834480D01*
Y170000D01*
X834480Y167000D01*
X834480Y164000D01*
Y153000D01*
X838507D01*
Y132935D01*
X837031Y132082D01*
X834918Y129969D01*
X833423Y127381D01*
X832650Y124494D01*
Y121506D01*
X833423Y118619D01*
X834918Y116031D01*
X837031Y113918D01*
X839619Y112423D01*
X842506Y111650D01*
X845494D01*
X848381Y112423D01*
X850969Y113918D01*
X853082Y116031D01*
X854576Y118619D01*
X855350Y121506D01*
Y124494D01*
X854576Y127381D01*
X853082Y129969D01*
X850969Y132082D01*
X849723Y132802D01*
Y153000D01*
X853980D01*
Y164000D01*
X853980Y167000D01*
X853980Y170000D01*
Y181000D01*
X849838D01*
Y213770D01*
X849411Y215916D01*
X848195Y217735D01*
X841608Y224323D01*
Y264927D01*
X843245Y265910D01*
X844608Y266317D01*
X846391Y265287D01*
X848769Y264650D01*
X851231D01*
X853609Y265287D01*
X855741Y266518D01*
X857482Y268259D01*
X858713Y270391D01*
X859350Y272769D01*
Y275231D01*
X858713Y277609D01*
X857482Y279741D01*
X855741Y281482D01*
X855608Y281559D01*
Y362248D01*
X856469Y362833D01*
X857429Y362591D01*
X859543Y361293D01*
X859848Y359759D01*
X861174Y357774D01*
X861510Y357550D01*
Y353950D01*
X861174Y353726D01*
X859848Y351741D01*
X859382Y349400D01*
X859848Y347059D01*
X861174Y345074D01*
X861510Y344850D01*
Y341250D01*
X861174Y341026D01*
X859848Y339041D01*
X859382Y336700D01*
X859848Y334359D01*
X861174Y332374D01*
X861510Y332150D01*
Y328550D01*
X861174Y328326D01*
X859848Y326341D01*
X859382Y324000D01*
X859848Y321659D01*
X861174Y319674D01*
X861510Y319450D01*
Y315850D01*
X861174Y315626D01*
X859848Y313641D01*
X859382Y311300D01*
X859848Y308959D01*
X861174Y306974D01*
X863159Y305648D01*
X865500Y305182D01*
X866267D01*
Y299487D01*
X866259Y299482D01*
X864518Y297741D01*
X863287Y295609D01*
X862650Y293231D01*
Y290769D01*
X863287Y288391D01*
X864518Y286259D01*
X866259Y284518D01*
X868391Y283287D01*
X870769Y282650D01*
X873231D01*
X875609Y283287D01*
X877741Y284518D01*
X879482Y286259D01*
X880713Y288391D01*
X881350Y290769D01*
Y293231D01*
X880713Y295609D01*
X879482Y297741D01*
X877741Y299482D01*
X877483Y299631D01*
Y305182D01*
X878000D01*
X880341Y305648D01*
X882326Y306974D01*
X883652Y308959D01*
X884118Y311300D01*
X883652Y313641D01*
X882566Y315267D01*
X882976Y316812D01*
X883773Y318267D01*
X886582D01*
X886731Y318008D01*
X888472Y316267D01*
X890604Y315036D01*
X892982Y314399D01*
X895226D01*
X895684Y313870D01*
X896699Y311630D01*
X887035Y301965D01*
X885819Y300146D01*
X885392Y298000D01*
Y229709D01*
X885259Y229632D01*
X883518Y227891D01*
X882287Y225759D01*
X881650Y223381D01*
Y220919D01*
X882287Y218541D01*
X883518Y216409D01*
X885259Y214668D01*
X887391Y213437D01*
X889769Y212800D01*
X892231D01*
X894609Y213437D01*
X896741Y214668D01*
X898482Y216409D01*
X899713Y218541D01*
X900350Y220919D01*
Y223381D01*
X899713Y225759D01*
X898482Y227891D01*
X896741Y229632D01*
X896608Y229709D01*
Y295677D01*
X901392Y300462D01*
X904392Y299219D01*
Y215559D01*
X904259Y215482D01*
X902518Y213741D01*
X901287Y211609D01*
X900650Y209231D01*
Y206769D01*
X901287Y204391D01*
X902518Y202259D01*
X904259Y200518D01*
X906391Y199287D01*
X908769Y198650D01*
X911231D01*
X913609Y199287D01*
X915741Y200518D01*
X917482Y202259D01*
X918713Y204391D01*
X919350Y206769D01*
Y209231D01*
X918713Y211609D01*
X917482Y213741D01*
X915741Y215482D01*
X915608Y215559D01*
Y299677D01*
X934093Y318162D01*
X935500Y317882D01*
X948000D01*
X950341Y318348D01*
X950392Y318382D01*
X953392Y316779D01*
Y214323D01*
X950035Y210965D01*
X948819Y209146D01*
X948392Y207000D01*
Y201559D01*
X948259Y201482D01*
X946518Y199741D01*
X945287Y197609D01*
X944650Y195231D01*
Y192769D01*
X945287Y190391D01*
X946518Y188259D01*
X948259Y186518D01*
X950391Y185287D01*
X952769Y184650D01*
X955231D01*
X957609Y185287D01*
X959741Y186518D01*
X961482Y188259D01*
X962713Y190391D01*
X963350Y192769D01*
Y195231D01*
X962713Y197609D01*
X961482Y199741D01*
X959741Y201482D01*
X959608Y201559D01*
Y204677D01*
X962965Y208035D01*
X963266Y208484D01*
X966734Y208484D01*
X967035Y208035D01*
X970622Y204447D01*
Y181000D01*
X966480D01*
Y170000D01*
X966480Y167000D01*
X966480Y164000D01*
Y153000D01*
X970507D01*
Y132935D01*
X969031Y132082D01*
X966918Y129969D01*
X965424Y127381D01*
X964650Y124494D01*
Y121506D01*
X965424Y118619D01*
X966918Y116031D01*
X969031Y113918D01*
X971619Y112423D01*
X974506Y111650D01*
X977494D01*
X980381Y112423D01*
X982969Y113918D01*
X985082Y116031D01*
X986577Y118619D01*
X987350Y121506D01*
Y124494D01*
X986577Y127381D01*
X985082Y129969D01*
X982969Y132082D01*
X981723Y132802D01*
Y153000D01*
X985980D01*
Y164000D01*
X985980Y167000D01*
X985980Y170000D01*
Y181000D01*
X981838D01*
Y206770D01*
X981411Y208916D01*
X980195Y210735D01*
X978249Y212682D01*
X978365Y213170D01*
X979930Y213899D01*
X981708Y214259D01*
X983391Y213287D01*
X985769Y212650D01*
X988231D01*
X990609Y213287D01*
X992741Y214518D01*
X994022Y215799D01*
X995911Y215390D01*
X997022Y214715D01*
Y181000D01*
X992880D01*
Y170000D01*
X992880Y167000D01*
X992880Y164000D01*
Y153000D01*
X996907D01*
Y132935D01*
X995431Y132082D01*
X993318Y129969D01*
X991824Y127381D01*
X991050Y124494D01*
Y121506D01*
X991824Y118619D01*
X993318Y116031D01*
X995431Y113918D01*
X998019Y112423D01*
X1000906Y111650D01*
X1003894D01*
X1006781Y112423D01*
X1009369Y113918D01*
X1011482Y116031D01*
X1012977Y118619D01*
X1013750Y121506D01*
Y124494D01*
X1012977Y127381D01*
X1011482Y129969D01*
X1009369Y132082D01*
X1008123Y132802D01*
Y153000D01*
X1012380D01*
Y164000D01*
X1012380Y167000D01*
X1012380Y170000D01*
Y181000D01*
X1008238D01*
Y249370D01*
X1008059Y250270D01*
X1010200Y252660D01*
X1010391Y252751D01*
X1010769Y252650D01*
X1013231D01*
X1015609Y253287D01*
X1017741Y254518D01*
X1019482Y256259D01*
X1020713Y258391D01*
X1021350Y260769D01*
Y263231D01*
X1020713Y265609D01*
X1019482Y267741D01*
X1017741Y269482D01*
X1015609Y270713D01*
X1013231Y271350D01*
X1012664D01*
X1011608Y272406D01*
Y278330D01*
X1012232Y278577D01*
X1014608Y278836D01*
X1015518Y277259D01*
X1017259Y275518D01*
X1019391Y274287D01*
X1021769Y273650D01*
X1024231D01*
X1026609Y274287D01*
X1028741Y275518D01*
X1030482Y277259D01*
X1031713Y279391D01*
X1032350Y281769D01*
Y284231D01*
X1031713Y286609D01*
X1030482Y288741D01*
X1028923Y290300D01*
Y305182D01*
X1029880D01*
X1032221Y305648D01*
X1034206Y306974D01*
X1035532Y308959D01*
X1035997Y311300D01*
X1035532Y313641D01*
X1034362Y315392D01*
X1034632Y316561D01*
X1035465Y318392D01*
X1053041D01*
X1053118Y318259D01*
X1054859Y316518D01*
X1056991Y315287D01*
X1059369Y314650D01*
X1061831D01*
X1064209Y315287D01*
X1066341Y316518D01*
X1068082Y318259D01*
X1069313Y320391D01*
X1069392Y320687D01*
X1072392Y320293D01*
Y257559D01*
X1072259Y257482D01*
X1070518Y255741D01*
X1069287Y253609D01*
X1068650Y251231D01*
Y248769D01*
X1069287Y246391D01*
X1070518Y244259D01*
X1072259Y242518D01*
X1074391Y241287D01*
X1076769Y240650D01*
X1079231D01*
X1081609Y241287D01*
X1083741Y242518D01*
X1085482Y244259D01*
X1086713Y246391D01*
X1087350Y248769D01*
Y251231D01*
X1086713Y253609D01*
X1085482Y255741D01*
X1083741Y257482D01*
X1083608Y257559D01*
Y315971D01*
X1086608Y318036D01*
X1087380Y317882D01*
X1099880D01*
X1102221Y318348D01*
X1102287Y318392D01*
X1103677D01*
X1113392Y308677D01*
Y243559D01*
X1113259Y243482D01*
X1111518Y241741D01*
X1110287Y239609D01*
X1109650Y237231D01*
Y234769D01*
X1110287Y232391D01*
X1111518Y230259D01*
X1113259Y228518D01*
X1115391Y227287D01*
X1117769Y226650D01*
X1120231D01*
X1122609Y227287D01*
X1124741Y228518D01*
X1126482Y230259D01*
X1127713Y232391D01*
X1128350Y234769D01*
Y237231D01*
X1127713Y239609D01*
X1126482Y241741D01*
X1124741Y243482D01*
X1124608Y243559D01*
Y311000D01*
X1124181Y313146D01*
X1123176Y314650D01*
X1123481Y315854D01*
X1124523Y317650D01*
X1125231D01*
X1127609Y318287D01*
X1129741Y319518D01*
X1131482Y321259D01*
X1132713Y323391D01*
X1133350Y325769D01*
Y327477D01*
X1135307Y328648D01*
X1136226Y328843D01*
X1138392Y326677D01*
Y188559D01*
X1138259Y188482D01*
X1136518Y186741D01*
X1135287Y184609D01*
X1134650Y182231D01*
Y179769D01*
X1135287Y177391D01*
X1136518Y175259D01*
X1136891Y174886D01*
X1135846Y171689D01*
X1134456Y171475D01*
X1128259Y177672D01*
X1126439Y178888D01*
X1124293Y179314D01*
X1117980D01*
Y181000D01*
X1098480D01*
Y170000D01*
X1098480Y167000D01*
X1098480Y164000D01*
Y153000D01*
X1102507D01*
Y132935D01*
X1101031Y132082D01*
X1098918Y129969D01*
X1097423Y127381D01*
X1096650Y124494D01*
Y121506D01*
X1097423Y118619D01*
X1098918Y116031D01*
X1101031Y113918D01*
X1103619Y112423D01*
X1106506Y111650D01*
X1109494D01*
X1112381Y112423D01*
X1114969Y113918D01*
X1117082Y116031D01*
X1118577Y118619D01*
X1119350Y121506D01*
Y124494D01*
X1118577Y127381D01*
X1117082Y129969D01*
X1114969Y132082D01*
X1113723Y132802D01*
Y153000D01*
X1117980D01*
Y164000D01*
X1117980Y167000D01*
X1120525Y168099D01*
X1121971D01*
X1129035Y161035D01*
X1130854Y159819D01*
X1133000Y159392D01*
X1165000D01*
X1167146Y159819D01*
X1168965Y161035D01*
X1179965Y172035D01*
X1181181Y173854D01*
X1181608Y176000D01*
Y216300D01*
X1184193Y217152D01*
X1184608Y217169D01*
X1186259Y215518D01*
X1188391Y214287D01*
X1190769Y213650D01*
X1193231D01*
X1195609Y214287D01*
X1197741Y215518D01*
X1197977Y215754D01*
X1200977Y214511D01*
Y201530D01*
X1200893Y201482D01*
X1199153Y199741D01*
X1197922Y197609D01*
X1197284Y195231D01*
Y192769D01*
X1197922Y190391D01*
X1199153Y188259D01*
X1200893Y186518D01*
X1203025Y185287D01*
X1205403Y184650D01*
X1207865D01*
X1210243Y185287D01*
X1212375Y186518D01*
X1214116Y188259D01*
X1215347Y190391D01*
X1215984Y192769D01*
Y195231D01*
X1215347Y197609D01*
X1214116Y199741D01*
X1212700Y201157D01*
X1212856Y202869D01*
X1214431Y203692D01*
X1215962Y203816D01*
X1217259Y202518D01*
X1219391Y201287D01*
X1221769Y200650D01*
X1224231D01*
X1226609Y201287D01*
X1228741Y202518D01*
X1230482Y204259D01*
X1231713Y206391D01*
X1232350Y208769D01*
Y211231D01*
X1231713Y213609D01*
X1230482Y215741D01*
X1228741Y217482D01*
X1228273Y217752D01*
Y435712D01*
X1228406Y435788D01*
X1230147Y437529D01*
X1231378Y439661D01*
X1232015Y442039D01*
Y444501D01*
X1231378Y446879D01*
X1230147Y449011D01*
X1228406Y450752D01*
X1226274Y451983D01*
X1223896Y452620D01*
X1221434D01*
X1219056Y451983D01*
X1216924Y450752D01*
X1215192Y449020D01*
X1215151Y449020D01*
X1212192Y449830D01*
Y452981D01*
X1212276Y453030D01*
X1214016Y454770D01*
X1215247Y456903D01*
X1215885Y459281D01*
Y461742D01*
X1215247Y464120D01*
X1214016Y466253D01*
X1212276Y467993D01*
X1210144Y469224D01*
X1207766Y469861D01*
X1205304D01*
X1202926Y469224D01*
X1200794Y467993D01*
X1200608Y467808D01*
X1197608Y469050D01*
Y527000D01*
X1197181Y529146D01*
X1195965Y530965D01*
X1184965Y541965D01*
X1183146Y543181D01*
X1181000Y543608D01*
X1120403D01*
X1117980Y545000D01*
X1117980Y548000D01*
Y559000D01*
X1113836D01*
Y579103D01*
X1115196Y579888D01*
X1117309Y582001D01*
X1118804Y584589D01*
X1119577Y587476D01*
Y590464D01*
X1118804Y593351D01*
X1117309Y595939D01*
X1115196Y598052D01*
X1112608Y599546D01*
X1109721Y600320D01*
D02*
G37*
G36*
X58000Y513695D02*
X54000D01*
X51128Y513317D01*
X48453Y512209D01*
X46155Y510445D01*
X44391Y508148D01*
X43283Y505472D01*
X42905Y502600D01*
X43283Y499728D01*
X44391Y497052D01*
X46155Y494755D01*
X48453Y492991D01*
X51128Y491883D01*
X54000Y491505D01*
X58000D01*
X60872Y491883D01*
X63548Y492991D01*
X65845Y494755D01*
X67608Y497052D01*
X68717Y499728D01*
X69095Y502600D01*
X68717Y505472D01*
X67608Y508148D01*
X65845Y510445D01*
X63548Y512209D01*
X60872Y513317D01*
X58000Y513695D01*
D02*
G37*
G36*
X69000Y539000D02*
X43000D01*
Y517000D01*
X69000D01*
Y520435D01*
X200867D01*
X232651Y488651D01*
X232651Y488651D01*
X234218Y487449D01*
X236042Y486693D01*
X238000Y486435D01*
X444403D01*
X446391Y485287D01*
X448769Y484650D01*
X451231D01*
X453609Y485287D01*
X455741Y486518D01*
X457482Y488259D01*
X458713Y490391D01*
X459350Y492769D01*
Y495231D01*
X458713Y497609D01*
X457482Y499741D01*
X455741Y501482D01*
X453609Y502713D01*
X451231Y503350D01*
X448769D01*
X446391Y502713D01*
X444403Y501565D01*
X241133D01*
X209349Y533349D01*
X207782Y534551D01*
X205958Y535307D01*
X204000Y535565D01*
X69000D01*
Y539000D01*
D02*
G37*
G36*
X766521Y600320D02*
X763533D01*
X760646Y599546D01*
X758058Y598052D01*
X755945Y595939D01*
X754451Y593351D01*
X753677Y590464D01*
Y587476D01*
X754451Y584589D01*
X755945Y582001D01*
X758058Y579888D01*
X759421Y579101D01*
Y559000D01*
X755280D01*
Y548000D01*
X755280Y545000D01*
X755280Y542000D01*
Y531000D01*
X759407D01*
Y497567D01*
X759259Y497482D01*
X757518Y495741D01*
X756287Y493609D01*
X755650Y491231D01*
Y488769D01*
X756287Y486391D01*
X757518Y484259D01*
X759259Y482518D01*
X761391Y481287D01*
X763769Y480650D01*
X766231D01*
X768609Y481287D01*
X770741Y482518D01*
X772482Y484259D01*
X773713Y486391D01*
X774350Y488769D01*
Y491231D01*
X773713Y493609D01*
X772482Y495741D01*
X770741Y497482D01*
X770623Y497550D01*
Y531000D01*
X774780D01*
Y542000D01*
X774780Y545000D01*
X774780Y548000D01*
Y559000D01*
X770636D01*
Y579103D01*
X771996Y579888D01*
X774109Y582001D01*
X775604Y584589D01*
X776377Y587476D01*
Y590464D01*
X775604Y593351D01*
X774109Y595939D01*
X771996Y598052D01*
X769408Y599546D01*
X766521Y600320D01*
D02*
G37*
G36*
X740121D02*
X737133D01*
X734246Y599546D01*
X731658Y598052D01*
X729545Y595939D01*
X728051Y593351D01*
X727277Y590464D01*
Y587476D01*
X728051Y584589D01*
X729545Y582001D01*
X731658Y579888D01*
X733021Y579101D01*
Y559000D01*
X728880D01*
Y548000D01*
X728880Y545000D01*
X728880Y542000D01*
Y531000D01*
X733207D01*
Y491430D01*
X731518Y489741D01*
X730287Y487609D01*
X729650Y485231D01*
Y482769D01*
X730287Y480391D01*
X731518Y478259D01*
X733259Y476518D01*
X735391Y475287D01*
X737769Y474650D01*
X740231D01*
X742609Y475287D01*
X744741Y476518D01*
X746482Y478259D01*
X747713Y480391D01*
X748350Y482769D01*
Y485231D01*
X747713Y487609D01*
X746482Y489741D01*
X744741Y491482D01*
X744423Y491666D01*
Y531000D01*
X748380D01*
Y542000D01*
X748380Y545000D01*
X748380Y548000D01*
Y559000D01*
X744236D01*
Y579103D01*
X745596Y579888D01*
X747709Y582001D01*
X749204Y584589D01*
X749977Y587476D01*
Y590464D01*
X749204Y593351D01*
X747709Y595939D01*
X745596Y598052D01*
X743008Y599546D01*
X740121Y600320D01*
D02*
G37*
G36*
X977721D02*
X974733D01*
X971846Y599546D01*
X969258Y598052D01*
X967145Y595939D01*
X965651Y593351D01*
X964877Y590464D01*
Y587476D01*
X965651Y584589D01*
X967145Y582001D01*
X969258Y579888D01*
X970621Y579101D01*
Y559000D01*
X966480D01*
Y548000D01*
X966480Y545000D01*
X966480Y542000D01*
Y531000D01*
X970507D01*
Y466625D01*
X970259Y466482D01*
X968518Y464741D01*
X967287Y462609D01*
X966650Y460231D01*
Y457769D01*
X967287Y455391D01*
X968518Y453259D01*
X970259Y451518D01*
X972391Y450287D01*
X974769Y449650D01*
X977231D01*
X979609Y450287D01*
X981741Y451518D01*
X983482Y453259D01*
X984713Y455391D01*
X985350Y457769D01*
Y460231D01*
X984713Y462609D01*
X983482Y464741D01*
X981741Y466482D01*
X981723Y466492D01*
Y531000D01*
X985980D01*
Y542000D01*
X985980Y545000D01*
X985980Y548000D01*
Y559000D01*
X981836D01*
Y579103D01*
X983196Y579888D01*
X985309Y582001D01*
X986804Y584589D01*
X987577Y587476D01*
Y590464D01*
X986804Y593351D01*
X985309Y595939D01*
X983196Y598052D01*
X980608Y599546D01*
X977721Y600320D01*
D02*
G37*
G36*
X371231Y466350D02*
X368769D01*
X366391Y465713D01*
X364259Y464482D01*
X362895Y463117D01*
X47000D01*
X44659Y462652D01*
X42674Y461326D01*
X22674Y441326D01*
X21348Y439341D01*
X20882Y437000D01*
Y40000D01*
X21348Y37659D01*
X22674Y35674D01*
X32674Y25674D01*
X34659Y24348D01*
X37000Y23883D01*
X142000D01*
X144341Y24348D01*
X146326Y25674D01*
X151326Y30674D01*
X152652Y32659D01*
X153118Y35000D01*
Y41015D01*
X153816Y41418D01*
X155882Y43484D01*
X157344Y46016D01*
X158100Y48839D01*
Y51761D01*
X157344Y54584D01*
X155882Y57116D01*
X153816Y59182D01*
X151284Y60644D01*
X148461Y61400D01*
X145539D01*
X142716Y60644D01*
X140184Y59182D01*
X138118Y57116D01*
X136657Y54584D01*
X135900Y51761D01*
Y48839D01*
X136657Y46016D01*
X138118Y43484D01*
X140184Y41418D01*
X140883Y41015D01*
Y37534D01*
X139466Y36117D01*
X39534D01*
X33117Y42534D01*
Y434466D01*
X49534Y450882D01*
X362895D01*
X364259Y449518D01*
X366391Y448287D01*
X368769Y447650D01*
X371231D01*
X373609Y448287D01*
X375741Y449518D01*
X377482Y451259D01*
X378713Y453391D01*
X379350Y455769D01*
Y458231D01*
X378713Y460609D01*
X377482Y462741D01*
X375741Y464482D01*
X373609Y465713D01*
X371231Y466350D01*
D02*
G37*
G36*
X488500Y468350D02*
X466500D01*
Y446350D01*
X488500D01*
Y468350D01*
D02*
G37*
G36*
X1004121Y600320D02*
X1001133D01*
X998246Y599546D01*
X995658Y598052D01*
X993545Y595939D01*
X992051Y593351D01*
X991277Y590464D01*
Y587476D01*
X992051Y584589D01*
X993545Y582001D01*
X995658Y579888D01*
X997021Y579101D01*
Y559000D01*
X992880D01*
Y548000D01*
X992880Y545000D01*
X992880Y542000D01*
Y531000D01*
X997207D01*
Y450500D01*
X995518Y448811D01*
X994287Y446679D01*
X993650Y444301D01*
Y441839D01*
X994287Y439461D01*
X995518Y437329D01*
X997259Y435588D01*
X999391Y434357D01*
X1001769Y433720D01*
X1004231D01*
X1006609Y434357D01*
X1008741Y435588D01*
X1010482Y437329D01*
X1011713Y439461D01*
X1012350Y441839D01*
Y444301D01*
X1011713Y446679D01*
X1010482Y448811D01*
X1008741Y450552D01*
X1008423Y450736D01*
Y531000D01*
X1012380D01*
Y542000D01*
X1012380Y545000D01*
X1012380Y548000D01*
Y559000D01*
X1008236D01*
Y579103D01*
X1009596Y579888D01*
X1011709Y582001D01*
X1013204Y584589D01*
X1013977Y587476D01*
Y590464D01*
X1013204Y593351D01*
X1011709Y595939D01*
X1009596Y598052D01*
X1007008Y599546D01*
X1004121Y600320D01*
D02*
G37*
G36*
X187503Y440375D02*
X185297D01*
X183167Y439804D01*
X181258Y438702D01*
X179698Y437142D01*
X178596Y435233D01*
X178025Y433103D01*
Y430897D01*
X178596Y428767D01*
X179698Y426858D01*
X181258Y425298D01*
X183167Y424196D01*
X185297Y423625D01*
X187503D01*
X189633Y424196D01*
X191542Y425298D01*
X193102Y426858D01*
X194204Y428767D01*
X194775Y430897D01*
Y433103D01*
X194204Y435233D01*
X193102Y437142D01*
X191542Y438702D01*
X189633Y439804D01*
X187503Y440375D01*
D02*
G37*
G36*
X136703D02*
X134497D01*
X132367Y439804D01*
X130458Y438702D01*
X128898Y437142D01*
X127796Y435233D01*
X127225Y433103D01*
Y430897D01*
X127796Y428767D01*
X128898Y426858D01*
X130458Y425298D01*
X132367Y424196D01*
X134497Y423625D01*
X136703D01*
X138833Y424196D01*
X140742Y425298D01*
X142302Y426858D01*
X143404Y428767D01*
X143975Y430897D01*
Y433103D01*
X143404Y435233D01*
X142302Y437142D01*
X140742Y438702D01*
X138833Y439804D01*
X136703Y440375D01*
D02*
G37*
G36*
X478948Y442950D02*
X476052D01*
X473254Y442200D01*
X470746Y440752D01*
X468698Y438704D01*
X468330Y438068D01*
X366950D01*
X364609Y437602D01*
X362624Y436276D01*
X349974Y423626D01*
X348648Y421641D01*
X348182Y419300D01*
Y392279D01*
X346318Y391203D01*
X343897Y388782D01*
X343332Y387803D01*
X339868D01*
X339303Y388782D01*
X336882Y391203D01*
X333918Y392914D01*
X330611Y393800D01*
X327188D01*
X323882Y392914D01*
X320918Y391203D01*
X318497Y388782D01*
X317932Y387803D01*
X314468D01*
X313903Y388782D01*
X311482Y391203D01*
X308518Y392914D01*
X305212Y393800D01*
X301789D01*
X298482Y392914D01*
X295518Y391203D01*
X293097Y388782D01*
X292532Y387803D01*
X289068D01*
X288503Y388782D01*
X286082Y391203D01*
X283118Y392914D01*
X279811Y393800D01*
X276388D01*
X273082Y392914D01*
X270118Y391203D01*
X267697Y388782D01*
X267132Y387803D01*
X263668D01*
X263103Y388782D01*
X260682Y391203D01*
X257718Y392914D01*
X254412Y393800D01*
X250989D01*
X247682Y392914D01*
X244718Y391203D01*
X242297Y388782D01*
X240586Y385818D01*
X239700Y382511D01*
Y379089D01*
X240586Y375782D01*
X242297Y372818D01*
X244718Y370397D01*
X247682Y368686D01*
X250989Y367800D01*
X254412D01*
X257718Y368686D01*
X260682Y370397D01*
X263103Y372818D01*
X263668Y373797D01*
X267132D01*
X267697Y372818D01*
X270118Y370397D01*
X271982Y369321D01*
Y360900D01*
X272448Y358559D01*
X273774Y356574D01*
X278924Y351424D01*
X280909Y350098D01*
X283250Y349632D01*
X468330D01*
X468698Y348996D01*
X470746Y346948D01*
X473254Y345500D01*
X476052Y344750D01*
X478948D01*
X481746Y345500D01*
X484254Y346948D01*
X486302Y348996D01*
X487750Y351504D01*
X488500Y354302D01*
Y357198D01*
X487750Y359996D01*
X486302Y362504D01*
X484254Y364552D01*
X481746Y366000D01*
X478948Y366750D01*
X476052D01*
X473254Y366000D01*
X470746Y364552D01*
X468698Y362504D01*
X468330Y361868D01*
X285784D01*
X284217Y363434D01*
Y369321D01*
X286082Y370397D01*
X288503Y372818D01*
X289068Y373797D01*
X292532D01*
X293097Y372818D01*
X295518Y370397D01*
X298482Y368686D01*
X301789Y367800D01*
X305212D01*
X308518Y368686D01*
X311482Y370397D01*
X313903Y372818D01*
X314468Y373797D01*
X317932D01*
X318497Y372818D01*
X320918Y370397D01*
X323882Y368686D01*
X327188Y367800D01*
X330611D01*
X333918Y368686D01*
X336882Y370397D01*
X339303Y372818D01*
X339868Y373797D01*
X343332D01*
X343897Y372818D01*
X346318Y370397D01*
X349282Y368686D01*
X352589Y367800D01*
X356012D01*
X359318Y368686D01*
X362282Y370397D01*
X364703Y372818D01*
X365268Y373797D01*
X368732D01*
X369297Y372818D01*
X371718Y370397D01*
X374682Y368686D01*
X377989Y367800D01*
X381412D01*
X384718Y368686D01*
X387682Y370397D01*
X389100Y371815D01*
X392100Y370573D01*
Y367800D01*
X418100D01*
Y393800D01*
X392100D01*
Y391027D01*
X389100Y389785D01*
X387682Y391203D01*
X384718Y392914D01*
X381412Y393800D01*
X377989D01*
X374682Y392914D01*
X371718Y391203D01*
X369297Y388782D01*
X368732Y387803D01*
X365268D01*
X364703Y388782D01*
X362282Y391203D01*
X360418Y392279D01*
Y416766D01*
X369484Y425832D01*
X468330D01*
X468698Y425196D01*
X470746Y423148D01*
X473254Y421700D01*
X476052Y420950D01*
X478948D01*
X481746Y421700D01*
X484254Y423148D01*
X486302Y425196D01*
X487750Y427704D01*
X488500Y430502D01*
Y433398D01*
X487750Y436196D01*
X486302Y438704D01*
X484254Y440752D01*
X481746Y442200D01*
X478948Y442950D01*
D02*
G37*
G36*
Y417550D02*
X476052D01*
X473254Y416800D01*
X470746Y415352D01*
X468698Y413304D01*
X467250Y410796D01*
X466500Y407998D01*
Y405102D01*
X467250Y402304D01*
X468698Y399796D01*
X470746Y397748D01*
X473254Y396300D01*
X476052Y395550D01*
X478948D01*
X481746Y396300D01*
X484254Y397748D01*
X486302Y399796D01*
X487750Y402304D01*
X488500Y405102D01*
Y407998D01*
X487750Y410796D01*
X486302Y413304D01*
X484254Y415352D01*
X481746Y416800D01*
X478948Y417550D01*
D02*
G37*
G36*
X203612Y393800D02*
X200189D01*
X196882Y392914D01*
X193918Y391203D01*
X191497Y388782D01*
X190932Y387803D01*
X187468D01*
X186903Y388782D01*
X184482Y391203D01*
X181518Y392914D01*
X178211Y393800D01*
X174788D01*
X171482Y392914D01*
X168518Y391203D01*
X166097Y388782D01*
X165532Y387803D01*
X162068D01*
X161503Y388782D01*
X159082Y391203D01*
X156118Y392914D01*
X152811Y393800D01*
X149389D01*
X146082Y392914D01*
X143118Y391203D01*
X140697Y388782D01*
X140132Y387803D01*
X136668D01*
X136103Y388782D01*
X133682Y391203D01*
X130718Y392914D01*
X127411Y393800D01*
X123989D01*
X120682Y392914D01*
X117718Y391203D01*
X115297Y388782D01*
X114732Y387803D01*
X111268D01*
X110703Y388782D01*
X108282Y391203D01*
X105318Y392914D01*
X102011Y393800D01*
X98588D01*
X95282Y392914D01*
X92318Y391203D01*
X89897Y388782D01*
X88186Y385818D01*
X87300Y382511D01*
Y379089D01*
X88186Y375782D01*
X89897Y372818D01*
X92318Y370397D01*
X94183Y369321D01*
Y313700D01*
X94648Y311359D01*
X95974Y309374D01*
X105674Y299674D01*
X107659Y298348D01*
X110000Y297882D01*
X423466D01*
X446124Y275224D01*
X448109Y273898D01*
X450450Y273433D01*
X468330D01*
X468698Y272796D01*
X470746Y270748D01*
X473254Y269300D01*
X476052Y268550D01*
X478948D01*
X481746Y269300D01*
X484254Y270748D01*
X486302Y272796D01*
X487750Y275304D01*
X488500Y278102D01*
Y280998D01*
X487750Y283796D01*
X486302Y286304D01*
X484254Y288352D01*
X481746Y289800D01*
X478948Y290550D01*
X476052D01*
X473254Y289800D01*
X470746Y288352D01*
X468698Y286304D01*
X468330Y285668D01*
X452984D01*
X430326Y308326D01*
X428341Y309652D01*
X426000Y310117D01*
X112534D01*
X106418Y316234D01*
Y369321D01*
X108282Y370397D01*
X110703Y372818D01*
X111268Y373797D01*
X114732D01*
X115297Y372818D01*
X117718Y370397D01*
X119583Y369321D01*
Y332300D01*
X120048Y329959D01*
X121374Y327974D01*
X131674Y317674D01*
X133659Y316348D01*
X136000Y315882D01*
X428466D01*
X443724Y300624D01*
X445709Y299298D01*
X448050Y298832D01*
X468330D01*
X468698Y298196D01*
X470746Y296148D01*
X473254Y294700D01*
X476052Y293950D01*
X478948D01*
X481746Y294700D01*
X484254Y296148D01*
X486302Y298196D01*
X487750Y300704D01*
X488500Y303502D01*
Y306398D01*
X487750Y309196D01*
X486302Y311704D01*
X484254Y313752D01*
X481746Y315200D01*
X478948Y315950D01*
X476052D01*
X473254Y315200D01*
X470746Y313752D01*
X468698Y311704D01*
X468330Y311068D01*
X450584D01*
X435326Y326326D01*
X433341Y327652D01*
X431000Y328117D01*
X138534D01*
X131818Y334834D01*
Y369321D01*
X133682Y370397D01*
X136103Y372818D01*
X136668Y373797D01*
X140132D01*
X140697Y372818D01*
X143118Y370397D01*
X144983Y369321D01*
Y350900D01*
X145448Y348559D01*
X146774Y346574D01*
X158674Y334674D01*
X160659Y333348D01*
X163000Y332882D01*
X433466D01*
X440324Y326024D01*
X442309Y324698D01*
X444650Y324232D01*
X468330D01*
X468698Y323596D01*
X470746Y321548D01*
X473254Y320100D01*
X476052Y319350D01*
X478948D01*
X481746Y320100D01*
X484254Y321548D01*
X486302Y323596D01*
X487750Y326104D01*
X488500Y328902D01*
Y331798D01*
X487750Y334596D01*
X486302Y337104D01*
X484254Y339152D01*
X481746Y340600D01*
X478948Y341350D01*
X476052D01*
X473254Y340600D01*
X470746Y339152D01*
X468698Y337104D01*
X468330Y336468D01*
X447184D01*
X440326Y343326D01*
X438341Y344652D01*
X436000Y345117D01*
X165534D01*
X157218Y353434D01*
Y369321D01*
X159082Y370397D01*
X161503Y372818D01*
X162068Y373797D01*
X165532D01*
X166097Y372818D01*
X168518Y370397D01*
X171482Y368686D01*
X174788Y367800D01*
X178211D01*
X181518Y368686D01*
X184482Y370397D01*
X186903Y372818D01*
X187468Y373797D01*
X190932D01*
X191497Y372818D01*
X193918Y370397D01*
X196882Y368686D01*
X200189Y367800D01*
X203612D01*
X206918Y368686D01*
X209882Y370397D01*
X212303Y372818D01*
X214014Y375782D01*
X214900Y379089D01*
Y382511D01*
X214014Y385818D01*
X212303Y388782D01*
X209882Y391203D01*
X206918Y392914D01*
X203612Y393800D01*
D02*
G37*
G36*
X478948Y392150D02*
X476052D01*
X473254Y391400D01*
X470746Y389952D01*
X468698Y387904D01*
X467250Y385396D01*
X466500Y382598D01*
Y379702D01*
X467250Y376904D01*
X468698Y374396D01*
X470746Y372348D01*
X473254Y370900D01*
X476052Y370150D01*
X478948D01*
X481746Y370900D01*
X484254Y372348D01*
X486302Y374396D01*
X487750Y376904D01*
X488500Y379702D01*
Y382598D01*
X487750Y385396D01*
X486302Y387904D01*
X484254Y389952D01*
X481746Y391400D01*
X478948Y392150D01*
D02*
G37*
G36*
X229011Y292200D02*
X225588D01*
X222282Y291314D01*
X219318Y289603D01*
X216897Y287182D01*
X216332Y286203D01*
X212868D01*
X212303Y287182D01*
X209882Y289603D01*
X206918Y291314D01*
X203612Y292200D01*
X200189D01*
X196882Y291314D01*
X193918Y289603D01*
X191497Y287182D01*
X190932Y286203D01*
X187468D01*
X186903Y287182D01*
X184482Y289603D01*
X181518Y291314D01*
X178211Y292200D01*
X174788D01*
X171482Y291314D01*
X168518Y289603D01*
X166097Y287182D01*
X165532Y286203D01*
X162068D01*
X161503Y287182D01*
X159082Y289603D01*
X156118Y291314D01*
X152811Y292200D01*
X149389D01*
X146082Y291314D01*
X143118Y289603D01*
X140697Y287182D01*
X140132Y286203D01*
X136668D01*
X136103Y287182D01*
X133682Y289603D01*
X130718Y291314D01*
X127411Y292200D01*
X123989D01*
X120682Y291314D01*
X117718Y289603D01*
X115297Y287182D01*
X114732Y286203D01*
X111268D01*
X110703Y287182D01*
X108282Y289603D01*
X105318Y291314D01*
X102011Y292200D01*
X98588D01*
X95282Y291314D01*
X92318Y289603D01*
X89897Y287182D01*
X89332Y286203D01*
X85868D01*
X85303Y287182D01*
X82882Y289603D01*
X79918Y291314D01*
X76611Y292200D01*
X73189D01*
X69882Y291314D01*
X66918Y289603D01*
X64497Y287182D01*
X62786Y284218D01*
X61900Y280912D01*
Y277488D01*
X62786Y274182D01*
X64497Y271218D01*
X66918Y268797D01*
X68783Y267721D01*
Y237434D01*
X44674Y213326D01*
X43348Y211341D01*
X42882Y209000D01*
Y148105D01*
X41518Y146741D01*
X40287Y144609D01*
X39650Y142231D01*
Y139769D01*
X40287Y137391D01*
X41518Y135259D01*
X43259Y133518D01*
X45391Y132287D01*
X47769Y131650D01*
X50231D01*
X52609Y132287D01*
X54741Y133518D01*
X56482Y135259D01*
X57713Y137391D01*
X58350Y139769D01*
Y142231D01*
X57713Y144609D01*
X56482Y146741D01*
X55118Y148105D01*
Y206466D01*
X79226Y230574D01*
X80552Y232559D01*
X81018Y234900D01*
Y267721D01*
X82882Y268797D01*
X85303Y271218D01*
X85868Y272197D01*
X89332D01*
X89897Y271218D01*
X92318Y268797D01*
X95282Y267086D01*
X98588Y266200D01*
X102011D01*
X105318Y267086D01*
X108282Y268797D01*
X110703Y271218D01*
X111268Y272197D01*
X114732D01*
X115297Y271218D01*
X117718Y268797D01*
X119583Y267721D01*
Y259234D01*
X67674Y207326D01*
X66348Y205341D01*
X65883Y203000D01*
Y60000D01*
X66348Y57659D01*
X67674Y55674D01*
X77374Y45974D01*
X79359Y44648D01*
X81700Y44183D01*
X112315D01*
X112718Y43484D01*
X114784Y41418D01*
X117316Y39957D01*
X120139Y39200D01*
X123061D01*
X125884Y39957D01*
X128416Y41418D01*
X130482Y43484D01*
X131944Y46016D01*
X132700Y48839D01*
Y51761D01*
X131944Y54584D01*
X130482Y57116D01*
X128416Y59182D01*
X125884Y60644D01*
X123061Y61400D01*
X120139D01*
X117316Y60644D01*
X114784Y59182D01*
X112718Y57116D01*
X112315Y56417D01*
X84234D01*
X78117Y62534D01*
Y200466D01*
X130026Y252374D01*
X131352Y254359D01*
X131818Y256700D01*
Y267721D01*
X133682Y268797D01*
X136103Y271218D01*
X136668Y272197D01*
X140132D01*
X140697Y271218D01*
X143118Y268797D01*
X144983Y267721D01*
Y255634D01*
X92674Y203326D01*
X91348Y201341D01*
X90883Y199000D01*
Y125105D01*
X89518Y123741D01*
X88287Y121609D01*
X87650Y119231D01*
Y116769D01*
X88287Y114391D01*
X89518Y112259D01*
X91259Y110518D01*
X93391Y109287D01*
X95769Y108650D01*
X98231D01*
X100609Y109287D01*
X102741Y110518D01*
X104482Y112259D01*
X105713Y114391D01*
X106350Y116769D01*
Y119231D01*
X105713Y121609D01*
X104482Y123741D01*
X103118Y125105D01*
Y196466D01*
X155426Y248774D01*
X156752Y250759D01*
X157218Y253100D01*
Y267721D01*
X159082Y268797D01*
X161503Y271218D01*
X162068Y272197D01*
X165532D01*
X166097Y271218D01*
X168518Y268797D01*
X170382Y267721D01*
Y252034D01*
X117274Y198926D01*
X115948Y196941D01*
X115483Y194600D01*
Y84985D01*
X114784Y84582D01*
X112718Y82516D01*
X111257Y79984D01*
X110500Y77161D01*
Y74239D01*
X111257Y71416D01*
X112718Y68884D01*
X114784Y66818D01*
X117316Y65356D01*
X120139Y64600D01*
X123061D01*
X125884Y65356D01*
X128416Y66818D01*
X130482Y68884D01*
X131944Y71416D01*
X132700Y74239D01*
Y77161D01*
X131944Y79984D01*
X130482Y82516D01*
X128416Y84582D01*
X127718Y84985D01*
Y192066D01*
X180826Y245174D01*
X182152Y247159D01*
X182617Y249500D01*
Y267721D01*
X184482Y268797D01*
X186903Y271218D01*
X187468Y272197D01*
X190932D01*
X191497Y271218D01*
X193918Y268797D01*
X196882Y267086D01*
X200189Y266200D01*
X203612D01*
X206918Y267086D01*
X209882Y268797D01*
X212303Y271218D01*
X212868Y272197D01*
X216332D01*
X216897Y271218D01*
X219318Y268797D01*
X222282Y267086D01*
X225588Y266200D01*
X229011D01*
X232318Y267086D01*
X235282Y268797D01*
X237703Y271218D01*
X239414Y274182D01*
X240300Y277488D01*
Y280912D01*
X239414Y284218D01*
X237703Y287182D01*
X235282Y289603D01*
X232318Y291314D01*
X229011Y292200D01*
D02*
G37*
G36*
X406811D02*
X403388D01*
X400082Y291314D01*
X397118Y289603D01*
X394697Y287182D01*
X394132Y286203D01*
X390668D01*
X390103Y287182D01*
X387682Y289603D01*
X384718Y291314D01*
X381412Y292200D01*
X377989D01*
X374682Y291314D01*
X371718Y289603D01*
X369297Y287182D01*
X368732Y286203D01*
X365268D01*
X364703Y287182D01*
X362282Y289603D01*
X359318Y291314D01*
X356012Y292200D01*
X352589D01*
X349282Y291314D01*
X346318Y289603D01*
X343897Y287182D01*
X343332Y286203D01*
X339868D01*
X339303Y287182D01*
X336882Y289603D01*
X333918Y291314D01*
X330611Y292200D01*
X327188D01*
X323882Y291314D01*
X320918Y289603D01*
X318497Y287182D01*
X317932Y286203D01*
X314468D01*
X313903Y287182D01*
X311482Y289603D01*
X308518Y291314D01*
X305212Y292200D01*
X301789D01*
X298482Y291314D01*
X295518Y289603D01*
X293097Y287182D01*
X292532Y286203D01*
X289068D01*
X288503Y287182D01*
X286082Y289603D01*
X283118Y291314D01*
X279811Y292200D01*
X276388D01*
X273082Y291314D01*
X270118Y289603D01*
X267697Y287182D01*
X265986Y284218D01*
X265100Y280912D01*
Y277488D01*
X265986Y274182D01*
X267697Y271218D01*
X270118Y268797D01*
X273082Y267086D01*
X276388Y266200D01*
X279811D01*
X283118Y267086D01*
X286082Y268797D01*
X288503Y271218D01*
X289068Y272197D01*
X292532D01*
X293097Y271218D01*
X295518Y268797D01*
X298482Y267086D01*
X301789Y266200D01*
X305212D01*
X308518Y267086D01*
X311482Y268797D01*
X313903Y271218D01*
X314468Y272197D01*
X317932D01*
X318497Y271218D01*
X320918Y268797D01*
X323882Y267086D01*
X327188Y266200D01*
X330611D01*
X333918Y267086D01*
X336882Y268797D01*
X339303Y271218D01*
X339868Y272197D01*
X343332D01*
X343897Y271218D01*
X346318Y268797D01*
X349282Y267086D01*
X352589Y266200D01*
X356012D01*
X359318Y267086D01*
X362282Y268797D01*
X364703Y271218D01*
X365268Y272197D01*
X368732D01*
X369297Y271218D01*
X371718Y268797D01*
X374682Y267086D01*
X377989Y266200D01*
X381412D01*
X384718Y267086D01*
X387682Y268797D01*
X390103Y271218D01*
X390668Y272197D01*
X394132D01*
X394697Y271218D01*
X397118Y268797D01*
X400082Y267086D01*
X403388Y266200D01*
X406811D01*
X410118Y267086D01*
X413082Y268797D01*
X415503Y271218D01*
X417214Y274182D01*
X418100Y277488D01*
Y280912D01*
X417214Y284218D01*
X415503Y287182D01*
X413082Y289603D01*
X410118Y291314D01*
X406811Y292200D01*
D02*
G37*
G36*
X563948Y290550D02*
X561052D01*
X558254Y289800D01*
X555746Y288352D01*
X553698Y286304D01*
X553330Y285668D01*
X540550D01*
X538209Y285202D01*
X536224Y283876D01*
X526674Y274326D01*
X525348Y272341D01*
X524883Y270000D01*
Y116000D01*
X525348Y113659D01*
X526674Y111674D01*
X604674Y33674D01*
X606659Y32348D01*
X609000Y31883D01*
X906000D01*
X908341Y32348D01*
X910326Y33674D01*
X953926Y77274D01*
X955252Y79259D01*
X955717Y81600D01*
Y113426D01*
X956569Y113918D01*
X958682Y116031D01*
X960176Y118619D01*
X960950Y121506D01*
Y124494D01*
X960176Y127381D01*
X958682Y129969D01*
X956569Y132082D01*
X953981Y133576D01*
X951094Y134350D01*
X948106D01*
X945219Y133576D01*
X942631Y132082D01*
X940518Y129969D01*
X939024Y127381D01*
X938250Y124494D01*
Y121506D01*
X939024Y118619D01*
X940518Y116031D01*
X942631Y113918D01*
X943483Y113426D01*
Y84134D01*
X903466Y44117D01*
X611534D01*
X537118Y118534D01*
Y267466D01*
X543084Y273433D01*
X553330D01*
X553698Y272796D01*
X555746Y270748D01*
X558254Y269300D01*
X561052Y268550D01*
X563948D01*
X566746Y269300D01*
X569254Y270748D01*
X571302Y272796D01*
X572750Y275304D01*
X573500Y278102D01*
Y280998D01*
X572750Y283796D01*
X571302Y286304D01*
X569254Y288352D01*
X566746Y289800D01*
X563948Y290550D01*
D02*
G37*
G36*
X177270Y198863D02*
Y191270D01*
X184863D01*
X184284Y193431D01*
X183114Y195459D01*
X181459Y197114D01*
X179431Y198284D01*
X177270Y198863D01*
D02*
G37*
G36*
X174730D02*
X172569Y198284D01*
X170541Y197114D01*
X168886Y195459D01*
X167716Y193431D01*
X167137Y191270D01*
X174730D01*
Y198863D01*
D02*
G37*
G36*
X184863Y188730D02*
X177270D01*
Y181137D01*
X179431Y181716D01*
X181459Y182886D01*
X183114Y184541D01*
X184284Y186569D01*
X184863Y188730D01*
D02*
G37*
G36*
X174730D02*
X167137D01*
X167716Y186569D01*
X168886Y184541D01*
X170541Y182886D01*
X172569Y181716D01*
X174730Y181137D01*
Y188730D01*
D02*
G37*
G36*
X563948Y265150D02*
X561052D01*
X558254Y264400D01*
X555746Y262952D01*
X553698Y260904D01*
X552250Y258396D01*
X551500Y255598D01*
Y252702D01*
X552250Y249904D01*
X553698Y247396D01*
X555190Y245904D01*
Y131412D01*
X554518Y130741D01*
X553287Y128609D01*
X552650Y126231D01*
Y123769D01*
X553287Y121391D01*
X554518Y119259D01*
X556259Y117518D01*
X558391Y116287D01*
X560769Y115650D01*
X563231D01*
X565609Y116287D01*
X567741Y117518D01*
X569482Y119259D01*
X570713Y121391D01*
X571350Y123769D01*
Y126231D01*
X570713Y128609D01*
X569482Y130741D01*
X569310Y130913D01*
Y245404D01*
X571302Y247396D01*
X572750Y249904D01*
X573500Y252702D01*
Y255598D01*
X572750Y258396D01*
X571302Y260904D01*
X569254Y262952D01*
X566746Y264400D01*
X563948Y265150D01*
D02*
G37*
G36*
X1083231Y203350D02*
X1080769D01*
X1078391Y202713D01*
X1076259Y201482D01*
X1074518Y199741D01*
X1073287Y197609D01*
X1072650Y195231D01*
Y192769D01*
X1073287Y190391D01*
X1074518Y188259D01*
X1076259Y186518D01*
X1076307Y186490D01*
Y181000D01*
X1072080D01*
Y170000D01*
X1072080Y167000D01*
X1072080Y164000D01*
Y153000D01*
X1076107D01*
Y132935D01*
X1074631Y132082D01*
X1072518Y129969D01*
X1071023Y127381D01*
X1070250Y124494D01*
Y121506D01*
X1071023Y118619D01*
X1072518Y116031D01*
X1074631Y113918D01*
X1077219Y112423D01*
X1080106Y111650D01*
X1083094D01*
X1085981Y112423D01*
X1088569Y113918D01*
X1090682Y116031D01*
X1092177Y118619D01*
X1092950Y121506D01*
Y124494D01*
X1092177Y127381D01*
X1090682Y129969D01*
X1088569Y132082D01*
X1087323Y132802D01*
Y153000D01*
X1091580D01*
Y164000D01*
X1091580Y167000D01*
X1091580Y170000D01*
Y181000D01*
X1087523D01*
Y186392D01*
X1087741Y186518D01*
X1089482Y188259D01*
X1090713Y190391D01*
X1091350Y192769D01*
Y195231D01*
X1090713Y197609D01*
X1089482Y199741D01*
X1087741Y201482D01*
X1085609Y202713D01*
X1083231Y203350D01*
D02*
G37*
G36*
X1049231Y231850D02*
X1046769D01*
X1044391Y231213D01*
X1042259Y229982D01*
X1040518Y228241D01*
X1039287Y226109D01*
X1038650Y223731D01*
Y221269D01*
X1039287Y218891D01*
X1040518Y216759D01*
X1042259Y215018D01*
X1044391Y213787D01*
X1046769Y213150D01*
X1049231D01*
X1050107Y210279D01*
Y181000D01*
X1045680D01*
Y170000D01*
X1045680Y167000D01*
X1045680Y164000D01*
Y153000D01*
X1049707D01*
Y132935D01*
X1048231Y132082D01*
X1046118Y129969D01*
X1044623Y127381D01*
X1043850Y124494D01*
Y121506D01*
X1044623Y118619D01*
X1046118Y116031D01*
X1048231Y113918D01*
X1050819Y112423D01*
X1053706Y111650D01*
X1056694D01*
X1059581Y112423D01*
X1062169Y113918D01*
X1064282Y116031D01*
X1065777Y118619D01*
X1066550Y121506D01*
Y124494D01*
X1065777Y127381D01*
X1064282Y129969D01*
X1062169Y132082D01*
X1060923Y132802D01*
Y153000D01*
X1065180D01*
Y164000D01*
X1065180Y167000D01*
X1065180Y170000D01*
Y181000D01*
X1061323D01*
Y215285D01*
X1060896Y217431D01*
X1059680Y219250D01*
X1057350Y221581D01*
Y223731D01*
X1056713Y226109D01*
X1055482Y228241D01*
X1053741Y229982D01*
X1051609Y231213D01*
X1049231Y231850D01*
D02*
G37*
G36*
X1037231Y271350D02*
X1034769D01*
X1032391Y270713D01*
X1030259Y269482D01*
X1028518Y267741D01*
X1027287Y265609D01*
X1026650Y263231D01*
Y260769D01*
X1026690Y260620D01*
X1025050Y258980D01*
X1023834Y257161D01*
X1023407Y255015D01*
Y181000D01*
X1019280D01*
Y170000D01*
X1019280Y167000D01*
X1019280Y164000D01*
Y153000D01*
X1023307D01*
Y132935D01*
X1021831Y132082D01*
X1019718Y129969D01*
X1018223Y127381D01*
X1017450Y124494D01*
Y121506D01*
X1018223Y118619D01*
X1019718Y116031D01*
X1021831Y113918D01*
X1024419Y112423D01*
X1027306Y111650D01*
X1030294D01*
X1033181Y112423D01*
X1035769Y113918D01*
X1037882Y116031D01*
X1039377Y118619D01*
X1040150Y121506D01*
Y124494D01*
X1039377Y127381D01*
X1037882Y129969D01*
X1035769Y132082D01*
X1034523Y132802D01*
Y153000D01*
X1038780D01*
Y164000D01*
X1038780Y167000D01*
X1038780Y170000D01*
Y181000D01*
X1034623D01*
Y252538D01*
X1034769Y252650D01*
X1037231D01*
X1039609Y253287D01*
X1041741Y254518D01*
X1043482Y256259D01*
X1044713Y258391D01*
X1045350Y260769D01*
Y263231D01*
X1044713Y265609D01*
X1043482Y267741D01*
X1041741Y269482D01*
X1039609Y270713D01*
X1037231Y271350D01*
D02*
G37*
G36*
X765231Y231500D02*
X762769D01*
X760391Y230863D01*
X758259Y229632D01*
X756518Y227891D01*
X755287Y225759D01*
X754650Y223381D01*
Y220919D01*
X755287Y218541D01*
X756518Y216409D01*
X758259Y214668D01*
X758907Y214294D01*
Y181000D01*
X755280D01*
Y170000D01*
X755280Y167000D01*
X755280Y164000D01*
Y153000D01*
X759307D01*
Y132935D01*
X757831Y132082D01*
X755718Y129969D01*
X754223Y127381D01*
X753450Y124494D01*
Y121506D01*
X754223Y118619D01*
X755718Y116031D01*
X757831Y113918D01*
X760419Y112423D01*
X763306Y111650D01*
X766294D01*
X769181Y112423D01*
X771769Y113918D01*
X773882Y116031D01*
X775377Y118619D01*
X776150Y121506D01*
Y124494D01*
X775377Y127381D01*
X773882Y129969D01*
X771769Y132082D01*
X770523Y132802D01*
Y153000D01*
X774780D01*
Y164000D01*
X774780Y167000D01*
X774780Y170000D01*
Y181000D01*
X770123D01*
Y215050D01*
X771482Y216409D01*
X772713Y218541D01*
X773350Y220919D01*
Y223381D01*
X772713Y225759D01*
X771482Y227891D01*
X769741Y229632D01*
X767609Y230863D01*
X765231Y231500D01*
D02*
G37*
G36*
X713231Y234350D02*
X710769D01*
X708391Y233713D01*
X706259Y232482D01*
X704518Y230741D01*
X703287Y228609D01*
X702650Y226231D01*
Y223769D01*
X703287Y221391D01*
X704518Y219259D01*
X706259Y217518D01*
X706392Y217441D01*
Y181000D01*
X702250D01*
Y170000D01*
X702250Y167000D01*
X702250Y164000D01*
Y153000D01*
X706392D01*
Y134350D01*
X700650D01*
Y111650D01*
X723350D01*
Y134350D01*
X717608D01*
Y153000D01*
X721750D01*
Y164000D01*
X721750Y167000D01*
X721750Y170000D01*
Y181000D01*
X717608D01*
Y217441D01*
X717741Y217518D01*
X719482Y219259D01*
X720713Y221391D01*
X721350Y223769D01*
Y226231D01*
X720713Y228609D01*
X719482Y230741D01*
X717741Y232482D01*
X715609Y233713D01*
X713231Y234350D01*
D02*
G37*
G36*
X563948Y366750D02*
X561052D01*
X558254Y366000D01*
X555746Y364552D01*
X553698Y362504D01*
X552250Y359996D01*
X551500Y357198D01*
Y354302D01*
X552250Y351504D01*
X553698Y348996D01*
X555746Y346948D01*
X558254Y345500D01*
X561052Y344750D01*
X563948D01*
X566746Y345500D01*
X569254Y346948D01*
X571302Y348996D01*
X571670Y349632D01*
X604716D01*
X618882Y335466D01*
Y100000D01*
X619348Y97659D01*
X620674Y95674D01*
X628674Y87674D01*
X630659Y86348D01*
X633000Y85883D01*
X862000D01*
X864341Y86348D01*
X866326Y87674D01*
X874726Y96074D01*
X876052Y98059D01*
X876518Y100400D01*
Y113426D01*
X877369Y113918D01*
X879482Y116031D01*
X880976Y118619D01*
X881750Y121506D01*
Y124494D01*
X880976Y127381D01*
X879482Y129969D01*
X877369Y132082D01*
X874781Y133576D01*
X871894Y134350D01*
X868906D01*
X866019Y133576D01*
X863431Y132082D01*
X861318Y129969D01*
X859824Y127381D01*
X859050Y124494D01*
Y121506D01*
X859824Y118619D01*
X861318Y116031D01*
X863431Y113918D01*
X864283Y113426D01*
Y102934D01*
X859466Y98118D01*
X635534D01*
X631118Y102534D01*
Y338000D01*
X630652Y340341D01*
X629326Y342326D01*
X611576Y360076D01*
X609591Y361402D01*
X607250Y361868D01*
X571670D01*
X571302Y362504D01*
X569254Y364552D01*
X566746Y366000D01*
X563948Y366750D01*
D02*
G37*
G36*
X498514Y108500D02*
X495486D01*
X492561Y107716D01*
X489939Y106202D01*
X487798Y104061D01*
X486284Y101439D01*
X485500Y98514D01*
Y95486D01*
X486284Y92561D01*
X487798Y89939D01*
X489939Y87798D01*
X492561Y86284D01*
X495486Y85500D01*
X498514D01*
X501439Y86284D01*
X504061Y87798D01*
X506202Y89939D01*
X507716Y92561D01*
X508500Y95486D01*
Y98514D01*
X507716Y101439D01*
X506202Y104061D01*
X504061Y106202D01*
X501439Y107716D01*
X498514Y108500D01*
D02*
G37*
G36*
X452514D02*
X449486D01*
X446561Y107716D01*
X443939Y106202D01*
X441798Y104061D01*
X440284Y101439D01*
X439500Y98514D01*
Y95486D01*
X440284Y92561D01*
X441798Y89939D01*
X443939Y87798D01*
X446561Y86284D01*
X449486Y85500D01*
X452514D01*
X455439Y86284D01*
X458061Y87798D01*
X460202Y89939D01*
X461716Y92561D01*
X462500Y95486D01*
Y98514D01*
X461716Y101439D01*
X460202Y104061D01*
X458061Y106202D01*
X455439Y107716D01*
X452514Y108500D01*
D02*
G37*
G36*
X318514D02*
X315486D01*
X312561Y107716D01*
X309939Y106202D01*
X307798Y104061D01*
X306284Y101439D01*
X305500Y98514D01*
Y95486D01*
X306284Y92561D01*
X307798Y89939D01*
X309939Y87798D01*
X312561Y86284D01*
X315486Y85500D01*
X318514D01*
X321439Y86284D01*
X324061Y87798D01*
X326202Y89939D01*
X327716Y92561D01*
X328500Y95486D01*
Y98514D01*
X327716Y101439D01*
X326202Y104061D01*
X324061Y106202D01*
X321439Y107716D01*
X318514Y108500D01*
D02*
G37*
G36*
X563948Y341350D02*
X561052D01*
X558254Y340600D01*
X555746Y339152D01*
X553698Y337104D01*
X552250Y334596D01*
X551500Y331798D01*
Y328902D01*
X552250Y326104D01*
X553698Y323596D01*
X555746Y321548D01*
X558254Y320100D01*
X561052Y319350D01*
X563948D01*
X566746Y320100D01*
X569254Y321548D01*
X571302Y323596D01*
X571670Y324232D01*
X590537D01*
X602882Y311887D01*
Y91000D01*
X603348Y88659D01*
X604674Y86674D01*
X621674Y69674D01*
X623659Y68348D01*
X626000Y67882D01*
X876000D01*
X878341Y68348D01*
X880326Y69674D01*
X901126Y90474D01*
X902452Y92459D01*
X902917Y94800D01*
Y113426D01*
X903769Y113918D01*
X905882Y116031D01*
X907376Y118619D01*
X908150Y121506D01*
Y124494D01*
X907376Y127381D01*
X905882Y129969D01*
X903769Y132082D01*
X901181Y133576D01*
X898294Y134350D01*
X895306D01*
X892419Y133576D01*
X889831Y132082D01*
X887718Y129969D01*
X886224Y127381D01*
X885450Y124494D01*
Y121506D01*
X886224Y118619D01*
X887718Y116031D01*
X889831Y113918D01*
X890683Y113426D01*
Y97334D01*
X873466Y80118D01*
X628534D01*
X615117Y93534D01*
Y314421D01*
X614652Y316762D01*
X613326Y318747D01*
X597397Y334676D01*
X595412Y336002D01*
X593071Y336468D01*
X571670D01*
X571302Y337104D01*
X569254Y339152D01*
X566746Y340600D01*
X563948Y341350D01*
D02*
G37*
G36*
X183500Y86800D02*
X161300D01*
Y64600D01*
X183500D01*
Y86800D01*
D02*
G37*
G36*
X148231Y169350D02*
X145769D01*
X143391Y168713D01*
X141259Y167482D01*
X139518Y165741D01*
X138287Y163609D01*
X137650Y161231D01*
Y158769D01*
X138287Y156391D01*
X139435Y154403D01*
Y83833D01*
X138118Y82516D01*
X136657Y79984D01*
X135900Y77161D01*
Y74239D01*
X136657Y71416D01*
X138118Y68884D01*
X140184Y66818D01*
X142716Y65356D01*
X145539Y64600D01*
X148461D01*
X151284Y65356D01*
X153816Y66818D01*
X155882Y68884D01*
X157344Y71416D01*
X158100Y74239D01*
Y77161D01*
X157344Y79984D01*
X155882Y82516D01*
X154565Y83833D01*
Y154403D01*
X155713Y156391D01*
X156350Y158769D01*
Y161231D01*
X155713Y163609D01*
X154482Y165741D01*
X152741Y167482D01*
X150609Y168713D01*
X148231Y169350D01*
D02*
G37*
G36*
X563948Y315950D02*
X561052D01*
X558254Y315200D01*
X555746Y313752D01*
X553698Y311704D01*
X552250Y309196D01*
X551500Y306398D01*
Y303502D01*
X552250Y300704D01*
X553698Y298196D01*
X555746Y296148D01*
X558254Y294700D01*
X561052Y293950D01*
X563948D01*
X566746Y294700D01*
X569254Y296148D01*
X571302Y298196D01*
X571670Y298832D01*
X578951D01*
X586883Y290901D01*
Y80000D01*
X587348Y77659D01*
X588674Y75674D01*
X612674Y51674D01*
X614659Y50348D01*
X617000Y49882D01*
X891000D01*
X893341Y50348D01*
X895326Y51674D01*
X927526Y83874D01*
X928852Y85859D01*
X929317Y88200D01*
Y113426D01*
X930169Y113918D01*
X932282Y116031D01*
X933776Y118619D01*
X934550Y121506D01*
Y124494D01*
X933776Y127381D01*
X932282Y129969D01*
X930169Y132082D01*
X927581Y133576D01*
X924694Y134350D01*
X921706D01*
X918819Y133576D01*
X916231Y132082D01*
X914118Y129969D01*
X912624Y127381D01*
X911850Y124494D01*
Y121506D01*
X912624Y118619D01*
X914118Y116031D01*
X916231Y113918D01*
X917083Y113426D01*
Y90734D01*
X888466Y62118D01*
X619534D01*
X599118Y82534D01*
Y293435D01*
X598652Y295776D01*
X597326Y297761D01*
X585811Y309276D01*
X583826Y310602D01*
X581485Y311068D01*
X571670D01*
X571302Y311704D01*
X569254Y313752D01*
X566746Y315200D01*
X563948Y315950D01*
D02*
G37*
G36*
X364514Y108500D02*
X361486D01*
X358561Y107716D01*
X355939Y106202D01*
X353798Y104061D01*
X352284Y101439D01*
X351500Y98514D01*
Y95486D01*
X352284Y92561D01*
X353798Y89939D01*
X355939Y87798D01*
X356883Y87253D01*
Y68000D01*
X357348Y65659D01*
X358674Y63674D01*
X368674Y53674D01*
X370659Y52348D01*
X373000Y51883D01*
X441466D01*
X444882Y48466D01*
Y40747D01*
X443939Y40202D01*
X441798Y38061D01*
X440284Y35439D01*
X439500Y32514D01*
Y29486D01*
X440284Y26561D01*
X441798Y23939D01*
X443939Y21798D01*
X446561Y20284D01*
X449486Y19500D01*
X452514D01*
X455439Y20284D01*
X458061Y21798D01*
X460202Y23939D01*
X460747Y24882D01*
X487253D01*
X487798Y23939D01*
X489939Y21798D01*
X492561Y20284D01*
X495486Y19500D01*
X498514D01*
X501439Y20284D01*
X504061Y21798D01*
X506202Y23939D01*
X507716Y26561D01*
X508500Y29486D01*
Y32514D01*
X507716Y35439D01*
X506202Y38061D01*
X504061Y40202D01*
X501439Y41716D01*
X498514Y42500D01*
X495486D01*
X492561Y41716D01*
X489939Y40202D01*
X487798Y38061D01*
X487253Y37118D01*
X460747D01*
X460202Y38061D01*
X458061Y40202D01*
X457118Y40747D01*
Y51000D01*
X456652Y53341D01*
X455326Y55326D01*
X448326Y62326D01*
X446341Y63652D01*
X444000Y64118D01*
X375534D01*
X369118Y70534D01*
Y87253D01*
X370061Y87798D01*
X372202Y89939D01*
X373716Y92561D01*
X374500Y95486D01*
Y98514D01*
X373716Y101439D01*
X372202Y104061D01*
X370061Y106202D01*
X367439Y107716D01*
X364514Y108500D01*
D02*
G37*
%LPD*%
D15*
X765030Y538000D02*
D03*
Y552000D02*
D03*
X1055430Y174000D02*
D03*
Y160000D02*
D03*
X1081830Y174000D02*
D03*
Y160000D02*
D03*
X1029030Y174000D02*
D03*
Y160000D02*
D03*
X1108230Y160000D02*
D03*
Y174000D02*
D03*
X817830Y538000D02*
D03*
Y552000D02*
D03*
X738630Y552000D02*
D03*
Y538000D02*
D03*
X791430Y538000D02*
D03*
Y552000D02*
D03*
X712230Y552000D02*
D03*
Y538000D02*
D03*
X844230Y538000D02*
D03*
Y552000D02*
D03*
X976230Y174000D02*
D03*
Y160000D02*
D03*
X1002630Y174000D02*
D03*
Y160000D02*
D03*
Y538000D02*
D03*
Y552000D02*
D03*
X844230Y174000D02*
D03*
Y160000D02*
D03*
X976230Y538000D02*
D03*
Y552000D02*
D03*
X791430Y174000D02*
D03*
Y160000D02*
D03*
X1029030Y538000D02*
D03*
Y552000D02*
D03*
X817830Y174000D02*
D03*
Y160000D02*
D03*
X1081830Y538000D02*
D03*
Y552000D02*
D03*
X765030Y174000D02*
D03*
Y160000D02*
D03*
X1055430Y538000D02*
D03*
Y552000D02*
D03*
X712000Y174000D02*
D03*
Y160000D02*
D03*
X1108230Y538000D02*
D03*
Y552000D02*
D03*
X738630Y174000D02*
D03*
Y160000D02*
D03*
D19*
X1051380Y429000D02*
D03*
X1065880D02*
D03*
X899500D02*
D03*
X914000D02*
D03*
X747620D02*
D03*
X762120D02*
D03*
D47*
X747620D02*
Y452620D01*
X1051190Y429190D02*
Y474810D01*
X899500Y429000D02*
Y466500D01*
D48*
X204000Y528000D02*
X238000Y494000D01*
X56000Y528000D02*
X204000D01*
X238000Y494000D02*
X450000D01*
X147000Y75700D02*
Y160000D01*
D49*
X47000Y457000D02*
X370000D01*
X74900Y234900D02*
Y279200D01*
X49000Y141000D02*
Y209000D01*
X74900Y234900D01*
X151100Y253100D02*
Y279200D01*
X97000Y199000D02*
X151100Y253100D01*
X97000Y118000D02*
Y199000D01*
X176500Y249500D02*
Y279200D01*
X121600Y194600D02*
X176500Y249500D01*
X121600Y75700D02*
Y194600D01*
X72000Y203000D02*
X125700Y256700D01*
Y279200D01*
X72000Y60000D02*
Y203000D01*
X1023630Y414630D02*
X1038000Y429000D01*
X1023630Y400200D02*
Y414630D01*
X1038000Y429000D02*
X1051380D01*
X531000Y116000D02*
Y270000D01*
Y116000D02*
X609000Y38000D01*
X906000D01*
X593000Y80000D02*
Y293435D01*
X617000Y56000D02*
X891000D01*
X593000Y80000D02*
X617000Y56000D01*
X626000Y74000D02*
X876000D01*
X609000Y91000D02*
Y314421D01*
Y91000D02*
X626000Y74000D01*
X719870Y419870D02*
X729000Y429000D01*
X747620D01*
X719870Y400200D02*
Y419870D01*
X949600Y81600D02*
Y123000D01*
X906000Y38000D02*
X949600Y81600D01*
X560000Y674000D02*
X907000D01*
X949827Y631173D01*
Y588970D02*
Y631173D01*
X865000Y621000D02*
X870627Y615373D01*
X590000Y621000D02*
X865000D01*
X870627Y588970D02*
Y615373D01*
X562500Y593500D02*
X590000Y621000D01*
X562500Y457350D02*
Y593500D01*
X503000Y393000D02*
Y617000D01*
X560000Y674000D01*
X27000Y40000D02*
Y437000D01*
Y40000D02*
X37000Y30000D01*
X142000D01*
X147000Y35000D01*
Y50300D01*
X426000Y304000D02*
X450450Y279550D01*
X477500D01*
X110000Y304000D02*
X426000D01*
X136000Y322000D02*
X431000D01*
X448050Y304950D01*
X477500D01*
X100300Y313700D02*
X110000Y304000D01*
X125700Y332300D02*
X136000Y322000D01*
X570000Y657000D02*
X891000D01*
X519000Y416000D02*
Y606000D01*
X570000Y657000D01*
X581000Y639000D02*
X878000D01*
X537000Y595000D02*
X581000Y639000D01*
X537000Y437000D02*
Y595000D01*
X891000Y657000D02*
X923427Y624573D01*
Y588970D02*
Y624573D01*
X897027Y588970D02*
Y619973D01*
X878000Y639000D02*
X897027Y619973D01*
X562000Y125000D02*
X562250Y125250D01*
Y253900D02*
X562500Y254150D01*
X625000Y100000D02*
Y338000D01*
X607250Y355750D02*
X625000Y338000D01*
X562500Y355750D02*
X607250D01*
X562500Y330350D02*
X593071D01*
X609000Y314421D01*
X540550Y279550D02*
X562500D01*
X531000Y270000D02*
X540550Y279550D01*
X625000Y100000D02*
X633000Y92000D01*
X891000Y56000D02*
X923200Y88200D01*
Y123000D01*
X870400Y100400D02*
Y123000D01*
X633000Y92000D02*
X862000D01*
X870400Y100400D01*
X896800Y94800D02*
Y123000D01*
X876000Y74000D02*
X896800Y94800D01*
X562500Y304950D02*
X581485D01*
X593000Y293435D01*
X537000Y437000D02*
X542050Y431950D01*
X562500D01*
X528450Y406550D02*
X562500D01*
X519000Y416000D02*
X528450Y406550D01*
X514850Y381150D02*
X562500D01*
X503000Y393000D02*
X514850Y381150D01*
X451000Y31000D02*
X497000D01*
X451000D02*
Y51000D01*
X444000Y58000D02*
X451000Y51000D01*
X373000Y58000D02*
X444000D01*
X363000Y68000D02*
X373000Y58000D01*
X363000Y68000D02*
Y97000D01*
X81700Y50300D02*
X121600D01*
X72000Y60000D02*
X81700Y50300D01*
X366950Y431950D02*
X477500D01*
X27000Y437000D02*
X47000Y457000D01*
X436000Y339000D02*
X444650Y330350D01*
X477500D01*
X163000Y339000D02*
X436000D01*
X278100Y360900D02*
X283250Y355750D01*
X477500D01*
X278100Y360900D02*
Y380800D01*
X151100Y350900D02*
X163000Y339000D01*
X151100Y350900D02*
Y380800D01*
X125700Y332300D02*
Y380800D01*
X100300Y313700D02*
Y380800D01*
X354300D02*
Y419300D01*
X366950Y431950D01*
X880000Y429000D02*
X899500D01*
X871750Y420750D02*
X880000Y429000D01*
X871750Y400200D02*
Y420750D01*
D50*
X842527Y417527D02*
X847527D01*
X799991Y374991D02*
X842527Y417527D01*
X790061Y374991D02*
X799991D01*
X847527Y417527D02*
X849000Y419000D01*
X1002815Y442185D02*
Y537815D01*
Y442185D02*
X1003000Y442000D01*
X1002630Y538000D02*
X1002815Y537815D01*
X765000Y255185D02*
Y318000D01*
X770809Y323809D02*
X789679D01*
X765000Y318000D02*
X770809Y323809D01*
X699000Y392000D02*
Y427000D01*
X712230Y440230D02*
Y538000D01*
X699000Y427000D02*
X712230Y440230D01*
X1055215Y537500D02*
X1055715Y538000D01*
X662000Y253000D02*
X741000D01*
X753000Y265000D02*
Y325000D01*
X764700Y336700D02*
X789870D01*
X768000Y394000D02*
X774500Y387500D01*
X641000Y205000D02*
X652000Y194000D01*
X655000Y260000D02*
X662000Y253000D01*
X753000Y325000D02*
X764700Y336700D01*
X741000Y253000D02*
X753000Y265000D01*
X655000Y260000D02*
Y505000D01*
X774500Y387500D02*
X789870D01*
X768000Y394000D02*
Y408000D01*
X641000Y205000D02*
Y484000D01*
X783000Y423000D02*
Y440000D01*
X768000Y408000D02*
X783000Y423000D01*
Y440000D02*
X791430Y448430D01*
X738815Y484185D02*
Y537500D01*
Y484185D02*
X739000Y484000D01*
X738315Y538000D02*
X738815Y537500D01*
X844115Y521115D02*
Y537885D01*
X844230Y538000D01*
X844000Y521000D02*
X844115Y521115D01*
X910000Y302000D02*
X931809Y323809D01*
X910000Y208000D02*
Y302000D01*
X982607Y248393D02*
X987000Y244000D01*
Y222000D02*
Y244000D01*
X1006000Y270084D02*
X1012000Y264084D01*
Y262000D02*
Y264084D01*
X1006000Y270084D02*
Y318542D01*
X1029015Y255015D02*
X1036000Y262000D01*
X1029015Y175500D02*
Y255015D01*
X858800Y374800D02*
X871750D01*
X850000Y366000D02*
X858800Y374800D01*
X850000Y274000D02*
Y366000D01*
X829000Y390000D02*
X845000D01*
X822000Y383000D02*
X829000Y390000D01*
X845000D02*
X847500Y387500D01*
X871750D01*
X822000Y204000D02*
Y383000D01*
X836000Y222000D02*
Y375650D01*
X1165000Y165000D02*
X1176000Y176000D01*
Y429000D01*
X1028985Y537955D02*
X1029013Y537928D01*
X1222665Y211335D02*
X1223000Y211000D01*
X1222665Y211335D02*
Y443270D01*
X699000Y392000D02*
X703500Y387500D01*
X811000Y411000D02*
X818000Y418000D01*
Y537830D01*
X1119000Y237000D02*
Y311000D01*
X1093630Y324000D02*
X1106000D01*
X1119000Y311000D01*
X1023315Y283315D02*
Y310985D01*
X1023000Y283000D02*
X1023315Y283315D01*
Y310985D02*
X1023630Y311300D01*
X1045850Y336850D02*
X1046000Y337000D01*
X1023780Y336850D02*
X1045850D01*
X1046000Y337000D02*
X1071000D01*
X1023630Y336700D02*
X1023780Y336850D01*
X1071000Y337000D02*
X1078000Y330000D01*
X696000Y362000D02*
X696050Y362050D01*
X719820D01*
X695000Y337000D02*
X695150Y336850D01*
X719720D01*
X677800Y374800D02*
X719870D01*
X671000Y368000D02*
X677800Y374800D01*
X671000Y299000D02*
Y368000D01*
Y299000D02*
X678000Y292000D01*
X719820Y362050D02*
X719870Y362100D01*
X738630Y228815D02*
X765000Y255185D01*
X994000Y258000D02*
X1002630Y249370D01*
Y175000D02*
Y249370D01*
X994000Y258000D02*
Y373000D01*
X1160000Y262000D02*
X1160000Y262000D01*
Y363000D01*
X982607Y248393D02*
Y410465D01*
X711500Y174000D02*
X712000Y174500D01*
X1078000Y250000D02*
Y330000D01*
X1048000Y223000D02*
X1055715Y215285D01*
Y175500D02*
Y215285D01*
X976230Y174000D02*
Y206770D01*
X971000Y212000D02*
X976230Y206770D01*
X971000Y212000D02*
Y368000D01*
X954000Y194000D02*
Y207000D01*
X959000Y212000D01*
Y344000D01*
X1181000Y538000D02*
X1192000Y527000D01*
Y223000D02*
Y527000D01*
X1081915Y173085D02*
Y193915D01*
X1124293Y173707D02*
X1133000Y165000D01*
X1165000D01*
X1144000Y181000D02*
Y329000D01*
X1123600Y349400D02*
X1144000Y329000D01*
X1108523Y173707D02*
X1124293D01*
X1081915Y193915D02*
X1082000Y194000D01*
X1081830Y173000D02*
X1081915Y173085D01*
X719720Y336850D02*
X719870Y336700D01*
X741000Y281000D02*
Y324000D01*
X730000Y270000D02*
X741000Y281000D01*
X669000Y270000D02*
X730000D01*
X738630Y175000D02*
Y228815D01*
X789679Y323809D02*
X789870Y324000D01*
X678000Y292000D02*
X696000D01*
X652000Y194000D02*
X692000D01*
X894088Y323875D02*
X894213Y323749D01*
X871875Y323875D02*
X894088D01*
X719870Y324000D02*
X741000D01*
X871750D02*
X871875Y323875D01*
X871875Y292125D02*
X872000Y292000D01*
X871875Y292125D02*
Y311175D01*
X871750Y311300D02*
X871875Y311175D01*
X712000Y174500D02*
Y225000D01*
X822000Y204000D02*
X832000Y194000D01*
X764000Y222150D02*
X764515Y221635D01*
X891000Y222150D02*
Y298000D01*
X764515Y175500D02*
Y221635D01*
X941559Y323809D02*
X941750Y324000D01*
X931809Y323809D02*
X941559D01*
X1055430Y175000D02*
Y175215D01*
X1055715Y175500D01*
X979071Y414000D02*
X982607Y410465D01*
X953600Y349400D02*
X959000Y344000D01*
X964200Y374800D02*
X971000Y368000D01*
X941750Y349400D02*
X953600D01*
X1108230Y174000D02*
X1108523Y173707D01*
X891000Y298000D02*
X929700Y336700D01*
X941750D01*
X791000Y209000D02*
X791215Y208785D01*
X790715Y175000D02*
X791215Y175500D01*
Y208785D01*
X1029015Y175500D02*
X1029030Y175485D01*
Y174000D02*
Y175485D01*
X1135500Y387500D02*
X1160000Y363000D01*
X1006000Y318542D02*
Y370000D01*
X941750Y411071D02*
X944679Y414000D01*
X979071D01*
X941750Y400200D02*
Y411071D01*
X963984Y399984D02*
X964140Y400140D01*
X941750Y387500D02*
X961055D01*
X963984Y390429D02*
Y399984D01*
X961055Y387500D02*
X963984Y390429D01*
X1010800Y374800D02*
X1023630D01*
X1006000Y370000D02*
X1010800Y374800D01*
X994000Y373000D02*
X1005431Y384431D01*
Y418012D01*
X1069000Y461000D02*
Y490000D01*
X1081915Y505085D02*
Y536900D01*
Y505085D02*
X1082000Y505000D01*
X1130875Y521875D02*
X1131000Y522000D01*
X1130875Y405375D02*
Y521875D01*
X1130750Y405250D02*
X1130875Y405375D01*
X765015Y490015D02*
Y538000D01*
X765000Y490000D02*
X765015Y490015D01*
X1055215Y505215D02*
Y537500D01*
X1055000Y505000D02*
X1055215Y505215D01*
X1051190Y429190D02*
X1051380Y429000D01*
X1051000Y475000D02*
X1051190Y474810D01*
X976115Y459115D02*
Y537885D01*
X976000Y459000D02*
X976115Y459115D01*
Y537885D02*
X976230Y538000D01*
X899500Y466500D02*
X900000Y467000D01*
X791430Y448430D02*
Y538000D01*
X789870Y400200D02*
Y411870D01*
X800257Y422257D01*
Y432611D01*
X789870Y374800D02*
X790061Y374991D01*
X1108229Y552001D02*
Y588968D01*
X1108227Y588970D02*
X1108229Y588968D01*
Y552001D02*
X1108230Y552000D01*
X1081829Y552001D02*
Y588968D01*
X1081827Y588970D02*
X1081829Y588968D01*
Y552001D02*
X1081830Y552000D01*
X1055428Y552001D02*
Y588968D01*
X1055427Y588970D02*
X1055428Y588968D01*
Y552001D02*
X1055430Y552000D01*
X1029028Y552001D02*
Y588968D01*
X1029027Y588970D02*
X1029028Y588968D01*
Y552001D02*
X1029030Y552000D01*
X1002629Y552001D02*
X1002630Y552000D01*
X1002629Y552001D02*
Y588968D01*
X1002627Y588970D02*
X1002629Y588968D01*
X976229Y552001D02*
X976230Y552000D01*
X976227Y588970D02*
X976229Y588968D01*
Y552001D02*
Y588968D01*
X844227Y588970D02*
X844229Y588968D01*
Y552001D02*
X844230Y552000D01*
X844229Y552001D02*
Y588968D01*
X817829Y552001D02*
X817830Y552000D01*
X817829Y552001D02*
Y588968D01*
X817827Y588970D02*
X817829Y588968D01*
X791429Y552001D02*
X791430Y552000D01*
X791429Y552001D02*
Y588968D01*
X791427Y588970D02*
X791429Y588968D01*
X765027Y588970D02*
X765029Y588968D01*
Y552001D02*
X765030Y552000D01*
X765029Y552001D02*
Y588968D01*
X738627Y588970D02*
X738629Y588968D01*
Y552001D02*
X738630Y552000D01*
X738629Y552001D02*
Y588968D01*
X712227Y588970D02*
X712230Y588967D01*
Y552000D02*
Y588967D01*
X1108115Y123115D02*
Y159885D01*
X1108230Y160000D01*
X1108000Y123000D02*
X1108115Y123115D01*
X1081715D02*
Y159885D01*
X1081830Y160000D01*
X1081600Y123000D02*
X1081715Y123115D01*
X1055315D02*
Y159885D01*
X1055200Y123000D02*
X1055315Y123115D01*
Y159885D02*
X1055430Y160000D01*
X1028915Y123115D02*
Y159885D01*
X1029030Y160000D01*
X1028800Y123000D02*
X1028915Y123115D01*
X1002400Y123000D02*
X1002515Y123115D01*
Y159885D02*
X1002630Y160000D01*
X1002515Y123115D02*
Y159885D01*
X976000Y123000D02*
X976115Y123115D01*
Y159885D02*
X976230Y160000D01*
X976115Y123115D02*
Y159885D01*
X844000Y123000D02*
X844115Y123115D01*
Y159885D02*
X844230Y160000D01*
X844115Y123115D02*
Y159885D01*
X817715Y123115D02*
Y159885D01*
X817830Y160000D01*
X817600Y123000D02*
X817715Y123115D01*
X791315D02*
Y159885D01*
X791200Y123000D02*
X791315Y123115D01*
Y159885D02*
X791430Y160000D01*
X764915Y123115D02*
Y159885D01*
X764800Y123000D02*
X764915Y123115D01*
Y159885D02*
X765030Y160000D01*
X738515Y123115D02*
Y159885D01*
X738630Y160000D01*
X738400Y123000D02*
X738515Y123115D01*
X712000Y123000D02*
Y160000D01*
X790061Y349209D02*
X800791D01*
X807000Y343000D01*
Y202000D02*
Y343000D01*
Y202000D02*
X817830Y191170D01*
X1081830Y536985D02*
X1081915Y536900D01*
X1206584Y194882D02*
Y460462D01*
Y194882D02*
X1206634Y194832D01*
X1206535Y460511D02*
X1206584Y460462D01*
X1028996Y443068D02*
X1029013Y443085D01*
Y537928D01*
X1121700Y374800D02*
X1131073Y365427D01*
X1093630Y374800D02*
X1121700D01*
X1093630Y387500D02*
X1135500D01*
X1093630Y349400D02*
X1123600D01*
X1123813Y327000D02*
X1124000D01*
X1093630Y336700D02*
X1114113D01*
X1123813Y327000D01*
X1023630Y387500D02*
X1055913D01*
X1065413Y397000D02*
X1066000D01*
X1055913Y387500D02*
X1065413Y397000D01*
X753000Y380000D02*
X770900Y362100D01*
X789870D01*
X836000Y222000D02*
X844230Y213770D01*
Y174000D02*
Y213770D01*
X817830Y174000D02*
Y191170D01*
X926900Y362100D02*
X941750D01*
X906000Y383000D02*
X926900Y362100D01*
X941750Y374800D02*
X964200D01*
X908084Y336704D02*
X908089Y336708D01*
X871750Y336700D02*
X871754Y336704D01*
X908084D01*
X906843Y362167D02*
X906910Y362234D01*
X871817Y362167D02*
X906843D01*
X871750Y362100D02*
X871817Y362167D01*
X871750Y349400D02*
X871941Y349209D01*
X893756D02*
X893951Y349013D01*
X871941Y349209D02*
X893756D01*
X764515Y175500D02*
X765015Y175000D01*
X1108230Y538000D02*
X1181000D01*
X703500Y387500D02*
X719870D01*
X1066000Y375000D02*
X1078900Y362100D01*
X1093630D01*
Y400200D02*
Y436370D01*
X1069000Y461000D02*
X1093630Y436370D01*
X1023630Y324000D02*
X1060600D01*
X1023630Y349400D02*
X1060600D01*
X1023630Y362100D02*
X1046000D01*
X719870Y349400D02*
X747400D01*
X789870D02*
X790061Y349209D01*
X719870Y349400D02*
X720061Y349209D01*
D53*
X562250Y125250D02*
Y253900D01*
D55*
X477500Y457350D02*
D03*
D56*
Y431950D02*
D03*
Y406550D02*
D03*
Y381150D02*
D03*
Y355750D02*
D03*
Y330350D02*
D03*
Y304950D02*
D03*
Y279550D02*
D03*
Y254150D02*
D03*
X562500Y457350D02*
D03*
Y431950D02*
D03*
Y406550D02*
D03*
Y381150D02*
D03*
Y355750D02*
D03*
Y330350D02*
D03*
Y304950D02*
D03*
Y279550D02*
D03*
Y254150D02*
D03*
D57*
X56000Y572600D02*
D03*
X56000Y642600D02*
D03*
X56000Y502600D02*
D03*
D58*
X405100Y380800D02*
D03*
D59*
X379700D02*
D03*
X354300D02*
D03*
X328900D02*
D03*
X303500D02*
D03*
X278100D02*
D03*
X252700D02*
D03*
X227300D02*
D03*
X201900D02*
D03*
X176500D02*
D03*
X151100D02*
D03*
X125700D02*
D03*
X100300D02*
D03*
X74900D02*
D03*
X405100Y279200D02*
D03*
X379700D02*
D03*
X354300D02*
D03*
X328900D02*
D03*
X303500D02*
D03*
X278100D02*
D03*
X252700D02*
D03*
X227300D02*
D03*
X201900D02*
D03*
X176500D02*
D03*
X151100D02*
D03*
X125700D02*
D03*
X100300D02*
D03*
X74900D02*
D03*
D60*
X1108227Y588970D02*
D03*
X1081827D02*
D03*
X1055427D02*
D03*
X1029027D02*
D03*
X1002627D02*
D03*
X976227D02*
D03*
X949827D02*
D03*
X923427D02*
D03*
X897027D02*
D03*
X870627D02*
D03*
X844227D02*
D03*
X817827D02*
D03*
X791427D02*
D03*
X765027D02*
D03*
X738627D02*
D03*
X1108000Y123000D02*
D03*
X1081600D02*
D03*
X1055200D02*
D03*
X1028800D02*
D03*
X1002400D02*
D03*
X976000D02*
D03*
X949600D02*
D03*
X923200D02*
D03*
X896800D02*
D03*
X870400D02*
D03*
X844000D02*
D03*
X817600D02*
D03*
X791200D02*
D03*
X764800D02*
D03*
X738400D02*
D03*
D61*
X712227Y588970D02*
D03*
X712000Y123000D02*
D03*
D62*
X317000Y31000D02*
D03*
X363000D02*
D03*
X317000Y97000D02*
D03*
X363000D02*
D03*
X451000Y31000D02*
D03*
X497000D02*
D03*
X451000Y97000D02*
D03*
X497000D02*
D03*
D63*
X121600Y75700D02*
D03*
X172400Y50300D02*
D03*
X147000D02*
D03*
X121600D02*
D03*
X147000Y75700D02*
D03*
D64*
X172400D02*
D03*
D65*
X135600Y432000D02*
D03*
X186400D02*
D03*
D66*
X56000Y668000D02*
D03*
X56000Y598000D02*
D03*
Y528000D02*
D03*
D67*
X154000Y605000D02*
D03*
X176000Y190000D02*
D03*
X1003000Y443070D02*
D03*
X450000Y658000D02*
D03*
X233000Y440000D02*
D03*
X370000Y457000D02*
D03*
X265000Y533000D02*
D03*
X293000D02*
D03*
X321000D02*
D03*
X349000D02*
D03*
X377000D02*
D03*
X405000D02*
D03*
X377000Y577000D02*
D03*
X391000Y599000D02*
D03*
X419000D02*
D03*
X405000Y577000D02*
D03*
X391000Y555000D02*
D03*
X419000D02*
D03*
X405000Y621000D02*
D03*
X377000D02*
D03*
X419000Y643000D02*
D03*
X377000Y665000D02*
D03*
X391000Y643000D02*
D03*
X405000Y665000D02*
D03*
X419000Y687000D02*
D03*
X391000D02*
D03*
X363000D02*
D03*
X335000D02*
D03*
X307000D02*
D03*
X279000D02*
D03*
X251000D02*
D03*
X450000Y494000D02*
D03*
X655000Y505000D02*
D03*
X641000Y484000D02*
D03*
X747620Y452620D02*
D03*
X739000Y484000D02*
D03*
X161000Y488000D02*
D03*
X844000Y521000D02*
D03*
X1012000Y262000D02*
D03*
X1036000D02*
D03*
X836000Y375650D02*
D03*
X1176000Y429000D02*
D03*
X1023000Y283000D02*
D03*
X1046000Y337000D02*
D03*
X696000D02*
D03*
Y362000D02*
D03*
X850000Y274000D02*
D03*
X1160000Y262000D02*
D03*
X1119000Y236000D02*
D03*
X1078000Y250000D02*
D03*
X1048000Y222500D02*
D03*
X987000Y222000D02*
D03*
X910000Y208000D02*
D03*
X954000Y194000D02*
D03*
X1192000Y223000D02*
D03*
X1144000Y181000D02*
D03*
X1082000Y194000D02*
D03*
X562000Y125000D02*
D03*
X669000Y270000D02*
D03*
X696000Y292000D02*
D03*
X741000Y324000D02*
D03*
X894213Y323749D02*
D03*
X872000Y292000D02*
D03*
X692000Y194000D02*
D03*
X712000Y225000D02*
D03*
X764000Y222150D02*
D03*
X891000D02*
D03*
X791000Y209000D02*
D03*
X832000Y194000D02*
D03*
X97000Y118000D02*
D03*
X49000Y141000D02*
D03*
X147000Y160000D02*
D03*
X964140Y400140D02*
D03*
X1069000Y490000D02*
D03*
X1082000Y505000D02*
D03*
X1131000Y522000D02*
D03*
X765000Y490000D02*
D03*
X1055000Y505000D02*
D03*
X1051000Y475000D02*
D03*
X976000Y459000D02*
D03*
X900000Y467000D02*
D03*
X800257Y432611D02*
D03*
X849000Y419000D02*
D03*
X1005431Y418012D02*
D03*
X811000Y411000D02*
D03*
X1206535Y460511D02*
D03*
X1028996Y443068D02*
D03*
X1222665Y443270D02*
D03*
X1206634Y194000D02*
D03*
X1131073Y365427D02*
D03*
X1130750Y405250D02*
D03*
X1124000Y327000D02*
D03*
X1066000Y397000D02*
D03*
X753000Y380000D02*
D03*
X906000Y383000D02*
D03*
X908089Y336708D02*
D03*
X906910Y362234D02*
D03*
X893951Y349013D02*
D03*
X1223000Y210000D02*
D03*
X1066000Y375000D02*
D03*
X1060600Y324000D02*
D03*
Y349400D02*
D03*
X1046000Y362100D02*
D03*
X747400Y349400D02*
D03*
D68*
X1093630Y400200D02*
D03*
X941750D02*
D03*
X789870D02*
D03*
D69*
X1093630Y387500D02*
D03*
Y374800D02*
D03*
Y362100D02*
D03*
Y349400D02*
D03*
Y336700D02*
D03*
Y324000D02*
D03*
Y311300D02*
D03*
X1023630Y400200D02*
D03*
Y387500D02*
D03*
Y374800D02*
D03*
Y362100D02*
D03*
Y349400D02*
D03*
Y336700D02*
D03*
Y324000D02*
D03*
Y311300D02*
D03*
X941750Y387500D02*
D03*
Y374800D02*
D03*
Y362100D02*
D03*
Y349400D02*
D03*
Y336700D02*
D03*
Y324000D02*
D03*
Y311300D02*
D03*
X871750Y400200D02*
D03*
Y387500D02*
D03*
Y374800D02*
D03*
Y362100D02*
D03*
Y349400D02*
D03*
Y336700D02*
D03*
Y324000D02*
D03*
Y311300D02*
D03*
X789870Y387500D02*
D03*
Y374800D02*
D03*
Y362100D02*
D03*
Y349400D02*
D03*
Y336700D02*
D03*
Y324000D02*
D03*
Y311300D02*
D03*
X719870Y400200D02*
D03*
Y387500D02*
D03*
Y374800D02*
D03*
Y362100D02*
D03*
Y349400D02*
D03*
Y336700D02*
D03*
Y324000D02*
D03*
Y311300D02*
D03*
M02*
