G04*
G04 #@! TF.GenerationSoftware,Altium Limited,Altium Designer,24.5.2 (23)*
G04*
G04 Layer_Color=65535*
%FSLAX44Y44*%
%MOMM*%
G71*
G04*
G04 #@! TF.SameCoordinates,5CBC3D74-EA73-4CBB-BCEB-C53DBBCF94AE*
G04*
G04*
G04 #@! TF.FilePolarity,Positive*
G04*
G01*
G75*
%ADD10C,0.2000*%
%ADD11C,0.2540*%
%ADD12R,1.8800X0.4300*%
%ADD13R,0.4300X1.8800*%
D10*
X417800Y336350D02*
G03*
X417800Y323650I0J-6350D01*
G01*
X683793Y582804D02*
G03*
X683793Y596004I0J6600D01*
G01*
X223046Y70499D02*
G03*
X223046Y57649I0J-6425D01*
G01*
X128300Y456806D02*
G03*
X128300Y406806I0J-25000D01*
G01*
X193700D02*
G03*
X193700Y456806I0J25000D01*
G01*
X513650Y470050D02*
G03*
X526350Y470050I6350J0D01*
G01*
X683566Y116834D02*
G03*
X683566Y130034I0J6600D01*
G01*
X62200Y366800D02*
X417800D01*
X62200Y293200D02*
Y366800D01*
X417800Y336350D02*
Y366800D01*
X62200Y293200D02*
X417799D01*
X417800Y293201D01*
Y323650D01*
X683327Y574973D02*
Y602970D01*
Y574970D02*
X1137127Y574970D01*
Y574973D02*
Y602970D01*
X683327D02*
X1137127D01*
X192052Y214963D02*
X201088Y224000D01*
X192052Y164836D02*
Y214963D01*
Y164836D02*
X200888Y156000D01*
X265977D01*
X201088Y224000D02*
X265977D01*
Y156000D02*
Y224000D01*
X304500Y18500D02*
X375500D01*
Y109500D01*
X304500Y18500D02*
Y109442D01*
X304558Y109500D01*
X375500D01*
X438500Y18500D02*
X509500D01*
Y109500D01*
X438500Y18500D02*
Y109442D01*
X438558Y109500D01*
X509500D01*
X381250Y570500D02*
X400750D01*
X381250Y599500D02*
X400673D01*
X400750Y599423D01*
X381250Y599700D02*
X400673D01*
X381250Y570700D02*
Y604000D01*
X400750D01*
Y570700D02*
Y604000D01*
X396500Y234250D02*
Y253750D01*
X425500Y234327D02*
Y253750D01*
X425423Y234250D02*
X425500Y234327D01*
X425700Y234327D02*
Y253750D01*
X396700D02*
X430000D01*
Y234250D02*
Y253750D01*
X396700Y234250D02*
X430000D01*
X262924Y254250D02*
X263000Y254174D01*
X233000Y254187D02*
X233063Y254250D01*
X262924D01*
X233000Y231750D02*
Y254187D01*
Y231750D02*
X262893D01*
X263000Y231857D01*
Y254174D01*
X225000Y405826D02*
X225076Y405750D01*
X254937D02*
X255000Y405813D01*
X225076Y405750D02*
X254937D01*
X255000Y405813D02*
Y428250D01*
X225107D02*
X255000D01*
X225000Y428143D02*
X225107Y428250D01*
X225000Y405826D02*
Y428143D01*
X70850Y106955D02*
X223060D01*
X70850Y17886D02*
Y106955D01*
Y17886D02*
X223029D01*
X223060Y106955D02*
X223087Y106928D01*
Y17942D02*
Y106928D01*
X435250Y222000D02*
Y252000D01*
Y222000D02*
X456750D01*
X435250Y252000D02*
X456750D01*
Y222000D02*
Y252000D01*
X401750Y617000D02*
Y647000D01*
X380250D02*
X401750D01*
X380250Y617000D02*
X401750D01*
X380250D02*
Y647000D01*
X128603Y456806D02*
X193594D01*
X128725Y406824D02*
X193501Y406804D01*
X175650Y495750D02*
X197150D01*
Y466250D02*
Y495750D01*
X175650Y466250D02*
X197150D01*
X175650D02*
Y495750D01*
X124850D02*
X146350D01*
Y466250D02*
Y495750D01*
X124850Y466250D02*
X146350D01*
X124850D02*
Y495750D01*
X142750Y585924D02*
X142826Y586000D01*
X142750Y556063D02*
X142813Y556000D01*
X142750Y556063D02*
Y585924D01*
X142813Y556000D02*
X165250D01*
Y585893D01*
X165143Y586000D02*
X165250Y585893D01*
X142826Y586000D02*
X165143D01*
X165174Y624000D02*
X165250Y624076D01*
X165187Y654000D02*
X165250Y653937D01*
Y624076D02*
Y653937D01*
X142750Y654000D02*
X165187D01*
X142750Y624107D02*
Y654000D01*
Y624107D02*
X142857Y624000D01*
X165174D01*
X196000Y231826D02*
X196076Y231750D01*
X225937D02*
X226000Y231813D01*
X196076Y231750D02*
X225937D01*
X226000Y231813D02*
Y254250D01*
X196107D02*
X226000D01*
X196000Y254143D02*
X196107Y254250D01*
X196000Y231826D02*
Y254143D01*
X394250Y412000D02*
Y442000D01*
Y412000D02*
X415750D01*
X394250Y442000D02*
X415750D01*
Y412000D02*
Y442000D01*
X259000Y86250D02*
X289000D01*
Y107750D01*
X259000Y86250D02*
Y107750D01*
X289000D01*
X392000Y87250D02*
X422000D01*
Y108750D01*
X392000Y87250D02*
Y108750D01*
X422000D01*
X493850Y241450D02*
Y470050D01*
Y241450D02*
X546150D01*
Y470050D01*
X526350D02*
X546150D01*
X493850D02*
X513650D01*
X21700Y668600D02*
X36700Y668459D01*
X21700Y642600D02*
X36700Y642741D01*
Y668459D01*
X21700Y598600D02*
X36700Y598459D01*
X21700Y572600D02*
X36700Y572741D01*
Y598459D01*
X21700Y528600D02*
X36700Y528459D01*
X21700Y502600D02*
X36700Y502741D01*
Y528459D01*
X683100Y109004D02*
Y137000D01*
Y109000D02*
X1136900Y109000D01*
Y109004D02*
Y137000D01*
X683100D02*
X1136900D01*
X97334Y501998D02*
X94002D01*
X95668D01*
Y493668D01*
X94002Y492002D01*
X92336D01*
X90669Y493668D01*
X100666Y500332D02*
X102332Y501998D01*
X105665D01*
X107331Y500332D01*
Y498666D01*
X105665Y497000D01*
X103998D01*
X105665D01*
X107331Y495334D01*
Y493668D01*
X105665Y492002D01*
X102332D01*
X100666Y493668D01*
X97334Y571998D02*
X94002D01*
X95668D01*
Y563668D01*
X94002Y562002D01*
X92336D01*
X90669Y563668D01*
X107331Y562002D02*
X100666D01*
X107331Y568666D01*
Y570332D01*
X105665Y571998D01*
X102332D01*
X100666Y570332D01*
X99000Y641998D02*
X95668D01*
X97334D01*
Y633668D01*
X95668Y632002D01*
X94002D01*
X92336Y633668D01*
X102332Y632002D02*
X105665D01*
X103998D01*
Y641998D01*
X102332Y640332D01*
D11*
X603000Y52000D02*
X1210500D01*
X603000Y659500D02*
X1210500D01*
Y52000D02*
Y659500D01*
X603000Y52000D02*
Y659500D01*
X21700Y630400D02*
Y680270D01*
Y630400D02*
X21770Y630330D01*
X21700Y680270D02*
X85300D01*
X21770Y630330D02*
X85300D01*
Y680270D01*
X21700Y560400D02*
Y610270D01*
Y560400D02*
X21770Y560330D01*
X21700Y610270D02*
X85300D01*
X21770Y560330D02*
X85300D01*
Y610270D01*
X21700Y490400D02*
Y540270D01*
Y490400D02*
X21770Y490330D01*
X21700Y540270D02*
X85300D01*
X21770Y490330D02*
X85300D01*
Y540270D01*
X362416Y542745D02*
Y673285D01*
X184876D02*
X362416D01*
X184876Y542745D02*
Y673285D01*
Y542745D02*
X362416D01*
X91240Y664140D02*
X96318D01*
X93779D01*
Y679375D01*
X91240Y676836D01*
X91240Y594140D02*
X96318D01*
X93779D01*
Y609375D01*
X91240Y606836D01*
Y524140D02*
X96318D01*
X93779D01*
Y539375D01*
X91240Y536836D01*
X31304Y336618D02*
Y323922D01*
X33843Y321382D01*
X38922D01*
X41461Y323922D01*
Y336618D01*
X56696Y321382D02*
X46539D01*
X56696Y331539D01*
Y334078D01*
X54157Y336618D01*
X49078D01*
X46539Y334078D01*
X1153461Y130618D02*
X1148382D01*
X1150922D01*
Y117922D01*
X1148382Y115382D01*
X1145843D01*
X1143304Y117922D01*
X1168696Y130618D02*
X1163617Y128078D01*
X1158539Y123000D01*
Y117922D01*
X1161078Y115382D01*
X1166157D01*
X1168696Y117922D01*
Y120461D01*
X1166157Y123000D01*
X1158539D01*
X77843Y439618D02*
X88000Y424383D01*
Y439618D02*
X77843Y424383D01*
X93078D02*
X98157D01*
X95618D01*
Y439618D01*
X93078Y437078D01*
X507304Y493618D02*
Y480922D01*
X509843Y478382D01*
X514922D01*
X517461Y480922D01*
Y493618D01*
X522539Y491078D02*
X525078Y493618D01*
X530157D01*
X532696Y491078D01*
Y488539D01*
X530157Y486000D01*
X527617D01*
X530157D01*
X532696Y483461D01*
Y480922D01*
X530157Y478382D01*
X525078D01*
X522539Y480922D01*
X339843Y695618D02*
Y682922D01*
X342383Y680383D01*
X347461D01*
X350000Y682922D01*
Y695618D01*
X355078Y680383D02*
X360157D01*
X357617D01*
Y695618D01*
X355078Y693078D01*
X416461Y33078D02*
X413922Y35617D01*
X408843D01*
X406304Y33078D01*
Y30539D01*
X408843Y28000D01*
X413922D01*
X416461Y25461D01*
Y22922D01*
X413922Y20382D01*
X408843D01*
X406304Y22922D01*
X431696Y20382D02*
X421539D01*
X431696Y30539D01*
Y33078D01*
X429157Y35617D01*
X424078D01*
X421539Y33078D01*
X289000D02*
X286461Y35617D01*
X281383D01*
X278843Y33078D01*
Y30539D01*
X281383Y28000D01*
X286461D01*
X289000Y25461D01*
Y22922D01*
X286461Y20382D01*
X281383D01*
X278843Y22922D01*
X294078Y20382D02*
X299157D01*
X296618D01*
Y35617D01*
X294078Y33078D01*
X394304Y66382D02*
Y81617D01*
X401922D01*
X404461Y79078D01*
Y74000D01*
X401922Y71461D01*
X394304D01*
X399383D02*
X404461Y66382D01*
X419696Y81617D02*
X409539D01*
Y74000D01*
X414618Y76539D01*
X417157D01*
X419696Y74000D01*
Y68922D01*
X417157Y66382D01*
X412078D01*
X409539Y68922D01*
X261304Y64382D02*
Y79618D01*
X268922D01*
X271461Y77078D01*
Y72000D01*
X268922Y69461D01*
X261304D01*
X266383D02*
X271461Y64382D01*
X284157D02*
Y79618D01*
X276539Y72000D01*
X286696D01*
X409304Y624383D02*
Y639618D01*
X416922D01*
X419461Y637078D01*
Y632000D01*
X416922Y629461D01*
X409304D01*
X414383D02*
X419461Y624383D01*
X424539Y637078D02*
X427078Y639618D01*
X432157D01*
X434696Y637078D01*
Y634539D01*
X432157Y632000D01*
X429618D01*
X432157D01*
X434696Y629461D01*
Y626922D01*
X432157Y624383D01*
X427078D01*
X424539Y626922D01*
X392304Y448382D02*
Y463618D01*
X399922D01*
X402461Y461078D01*
Y456000D01*
X399922Y453461D01*
X392304D01*
X397383D02*
X402461Y448382D01*
X417696D02*
X407539D01*
X417696Y458539D01*
Y461078D01*
X415157Y463618D01*
X410078D01*
X407539Y461078D01*
X435843Y199382D02*
Y214618D01*
X443461D01*
X446000Y212078D01*
Y207000D01*
X443461Y204461D01*
X435843D01*
X440922D02*
X446000Y199382D01*
X451078D02*
X456157D01*
X453618D01*
Y214618D01*
X451078Y212078D01*
X1153461Y596587D02*
X1148382D01*
X1150922D01*
Y583892D01*
X1148382Y581353D01*
X1145843D01*
X1143304Y583892D01*
X1168696Y596587D02*
X1158539D01*
Y588970D01*
X1163618Y591509D01*
X1166157D01*
X1168696Y588970D01*
Y583892D01*
X1166157Y581353D01*
X1161078D01*
X1158539Y583892D01*
X47461Y70617D02*
X42382D01*
X44922D01*
Y57922D01*
X42382Y55382D01*
X39843D01*
X37304Y57922D01*
X60157Y55382D02*
Y70617D01*
X52539Y63000D01*
X62696D01*
X398304Y226618D02*
Y211383D01*
X405922D01*
X408461Y213922D01*
Y224078D01*
X405922Y226618D01*
X398304D01*
X423696Y211383D02*
X413539D01*
X423696Y221539D01*
Y224078D01*
X421157Y226618D01*
X416078D01*
X413539Y224078D01*
X411843Y592617D02*
Y577383D01*
X419461D01*
X422000Y579922D01*
Y590078D01*
X419461Y592617D01*
X411843D01*
X427078Y577383D02*
X432157D01*
X429618D01*
Y592617D01*
X427078Y590078D01*
X133061Y517150D02*
X130522Y519689D01*
X125443D01*
X122904Y517150D01*
Y506993D01*
X125443Y504454D01*
X130522D01*
X133061Y506993D01*
X138139Y517150D02*
X140678Y519689D01*
X145757D01*
X148296Y517150D01*
Y514611D01*
X145757Y512071D01*
X148296Y509532D01*
Y506993D01*
X145757Y504454D01*
X140678D01*
X138139Y506993D01*
Y509532D01*
X140678Y512071D01*
X138139Y514611D01*
Y517150D01*
X140678Y512071D02*
X145757D01*
X183861Y517150D02*
X181322Y519689D01*
X176243D01*
X173704Y517150D01*
Y506993D01*
X176243Y504454D01*
X181322D01*
X183861Y506993D01*
X188939Y519689D02*
X199096D01*
Y517150D01*
X188939Y506993D01*
Y504454D01*
X237461Y449586D02*
X234922Y452125D01*
X229843D01*
X227304Y449586D01*
Y439429D01*
X229843Y436890D01*
X234922D01*
X237461Y439429D01*
X252696Y452125D02*
X247617Y449586D01*
X242539Y444507D01*
Y439429D01*
X245078Y436890D01*
X250157D01*
X252696Y439429D01*
Y441968D01*
X250157Y444507D01*
X242539D01*
X279461Y248078D02*
X276922Y250618D01*
X271843D01*
X269304Y248078D01*
Y237922D01*
X271843Y235382D01*
X276922D01*
X279461Y237922D01*
X294696Y250618D02*
X284539D01*
Y243000D01*
X289618Y245539D01*
X292157D01*
X294696Y243000D01*
Y237922D01*
X292157Y235382D01*
X287078D01*
X284539Y237922D01*
X175461Y248078D02*
X172922Y250618D01*
X167843D01*
X165304Y248078D01*
Y237922D01*
X167843Y235382D01*
X172922D01*
X175461Y237922D01*
X188157Y235382D02*
Y250618D01*
X180539Y243000D01*
X190696D01*
X226461Y145078D02*
X223922Y147618D01*
X218843D01*
X216304Y145078D01*
Y134922D01*
X218843Y132382D01*
X223922D01*
X226461Y134922D01*
X231539Y145078D02*
X234078Y147618D01*
X239157D01*
X241696Y145078D01*
Y142539D01*
X239157Y140000D01*
X236618D01*
X239157D01*
X241696Y137461D01*
Y134922D01*
X239157Y132382D01*
X234078D01*
X231539Y134922D01*
X151461Y675392D02*
X148922Y677931D01*
X143843D01*
X141304Y675392D01*
Y665235D01*
X143843Y662696D01*
X148922D01*
X151461Y665235D01*
X166696Y662696D02*
X156539D01*
X166696Y672853D01*
Y675392D01*
X164157Y677931D01*
X159078D01*
X156539Y675392D01*
X154000Y605078D02*
X151461Y607617D01*
X146383D01*
X143843Y605078D01*
Y594922D01*
X146383Y592383D01*
X151461D01*
X154000Y594922D01*
X159078Y592383D02*
X164157D01*
X161618D01*
Y607617D01*
X159078Y605078D01*
D12*
X391000Y601950D02*
D03*
D13*
X427950Y244000D02*
D03*
M02*
